<?xml version="1.0" encoding="UTF-8" standalone="no"?>
<!-- Created with Inkscape (http://www.inkscape.org/) -->

<svg
   xmlns:dc="http://purl.org/dc/elements/1.1/"
   xmlns:cc="http://creativecommons.org/ns#"
   xmlns:rdf="http://www.w3.org/1999/02/22-rdf-syntax-ns#"
   xmlns:svg="http://www.w3.org/2000/svg"
   xmlns="http://www.w3.org/2000/svg"
   xmlns:xlink="http://www.w3.org/1999/xlink"
   xmlns:sodipodi="http://sodipodi.sourceforge.net/DTD/sodipodi-0.dtd"
   xmlns:inkscape="http://www.inkscape.org/namespaces/inkscape"
   width="210mm"
   height="297mm"
   id="svg2"
   version="1.1"
   inkscape:version="0.48.3.1 r9886"
   sodipodi:docname="Neues Dokument 1">
  <defs
     id="defs4">
    <linearGradient
       id="linearGradient4063">
      <stop
         style="stop-color:#cccccc;stop-opacity:1;"
         offset="0"
         id="stop4065" />
      <stop
         style="stop-color:#4d4d4d;stop-opacity:1;"
         offset="1"
         id="stop4067" />
    </linearGradient>
    <linearGradient
       inkscape:collect="always"
       xlink:href="#linearGradient4063"
       id="linearGradient4069"
       x1="-1121.0526"
       y1="483.94113"
       x2="-121.05261"
       y2="483.94113"
       gradientUnits="userSpaceOnUse"
       gradientTransform="translate(297.36993,15.488711)" />
  </defs>
  <sodipodi:namedview
     id="base"
     pagecolor="#ffffff"
     bordercolor="#666666"
     borderopacity="1.0"
     inkscape:pageopacity="0.0"
     inkscape:pageshadow="2"
     inkscape:zoom="0.38"
     inkscape:cx="-258.69021"
     inkscape:cy="694.69641"
     inkscape:document-units="px"
     inkscape:current-layer="layer1"
     showgrid="false"
     inkscape:window-width="1366"
     inkscape:window-height="712"
     inkscape:window-x="0"
     inkscape:window-y="27"
     inkscape:window-maximized="1" />
  <metadata
     id="metadata7">
    <rdf:RDF>
      <cc:Work
         rdf:about="">
        <dc:format>image/svg+xml</dc:format>
        <dc:type
           rdf:resource="http://purl.org/dc/dcmitype/StillImage" />
        <dc:title></dc:title>
      </cc:Work>
    </rdf:RDF>
  </metadata>
  <g
     inkscape:label="Ebene 1"
     inkscape:groupmode="layer"
     id="layer1">
    <g
       id="g4036"
       transform="translate(-294.73835,-78.646606)">
      <g
         id="g4024">
        <rect
           style="fill:#ffffff;fill-opacity:1;stroke:none"
           id="rect2985"
           width="1000"
           height="1000"
           x="-528.94434"
           y="78.076447" />
        <g
           id="g4014"
           transform="translate(0,3.0517578e-5)">
          <rect
             y="578.07642"
             x="-528.94434"
             height="500"
             width="1000"
             id="rect4000"
             style="fill:#000000;fill-opacity:1;stroke:none" />
          <g
             transform="translate(1.4774501e-5,8.1379782)"
             id="g4006">
            <text
               xml:space="preserve"
               style="font-size:158.55827332px;font-style:normal;font-weight:normal;line-height:125%;letter-spacing:0px;word-spacing:0px;fill:#72a626;fill-opacity:1;stroke:none;font-family:Sans"
               x="-483.01871"
               y="804.55835"
               id="text3992"
               sodipodi:linespacing="125%"><tspan
                 sodipodi:role="line"
                 id="tspan3994"
                 x="-483.01871"
                 y="804.55835">Snake<tspan
   style="fill:#b90f40;fill-opacity:1"
   id="tspan4002">berry</tspan></tspan></text>
            <text
               xml:space="preserve"
               style="font-size:103.44877625px;font-style:normal;font-weight:normal;line-height:125%;letter-spacing:0px;word-spacing:0px;fill:#436684;fill-opacity:1;stroke:none;font-family:Sans"
               x="-482.06314"
               y="954.3208"
               id="text3996"
               sodipodi:linespacing="125%"><tspan
                 sodipodi:role="line"
                 id="tspan3998"
                 x="-482.06314"
                 y="954.3208"
                 style="font-weight:bold;fill:#436684;fill-opacity:1;-inkscape-font-specification:Sans Bold">MEDIA <tspan
   style="fill:#d4ac42;fill-opacity:1"
   id="tspan4004">SERVICE</tspan></tspan></text>
          </g>
        </g>
      </g>
      <g
         transform="translate(112.60089,0)"
         id="g3979">
        <g
           id="g3963"
           transform="matrix(0.98441968,0,0,0.98441968,438.0907,556.62434)">
          <path
             style="fill:#a2a0a0"
             d="m -886.49098,-29.672441 c -15.97365,-1.691723 -29.9148,-8.120477 -41.05851,-18.933515 -3.28237,-3.184968 -4.82237,-4.198105 -8.95289,-5.889931 -10.49611,-4.299108 -20.2684,-9.705693 -29.84824,-16.513742 -2.95469,-2.099789 -7.79319,-5.016149 -10.75224,-6.480805 -18.77571,-9.2935 -32.56114,-27.275196 -36.55684,-47.684766 -0.504,-2.57449 -1.8897,-7.22936 -3.0794,-10.34414 -2.5539,-6.68675 -4.8609,-13.91961 -5.9965,-18.80006 -0.608,-2.61292 -1.5783,-4.52186 -3.7987,-7.47337 -8.6526,-11.5018 -12.9017,-24.00559 -12.9191,-38.01703 -0.01,-7.65336 0.666,-12.41729 2.6695,-18.82807 3.7312,-11.93895 11.1038,-22.64409 21.0405,-30.55092 4.9885,-3.96949 6.347,-6.86359 6.3545,-13.53774 0.018,-15.44472 6.6138,-31.55409 17.80571,-43.48503 3.54894,-3.78329 10.11407,-9.07283 13.89973,-11.19906 1.56462,-0.87877 2.84501,-1.73613 2.84532,-1.90523 3.2e-4,-0.16911 -1.46478,-0.80372 -3.25578,-1.41026 -3.64846,-1.23557 -7.01632,-3.94989 -8.07639,-6.50911 -0.5297,-1.27881 -1.81789,-2.28089 -5.18198,-4.03109 -5.0224,-2.61294 -7.39014,-5.07658 -8.42243,-8.76356 -0.53728,-1.91888 -1.30288,-2.94143 -3.31308,-4.42506 -5.3528,-3.95047 -7.9945,-7.79139 -7.9945,-11.62351 0,-1.2566 -0.7446,-2.53333 -2.8029,-4.80617 -3.0152,-3.32949 -4.3096,-6.63952 -3.8072,-9.73559 0.2405,-1.48181 -0.1111,-2.36012 -1.9094,-4.77049 -2.8539,-3.82509 -3.584,-6.12127 -3.122,-9.8191 0.3193,-2.55538 0.155,-3.37713 -1.1954,-5.98005 -1.9986,-3.85217 -2.0664,-7.8891 -0.1887,-11.23003 1.2485,-2.22146 1.2605,-2.37469 0.3626,-4.61892 -1.0949,-2.7363 -1.1717,-4.81119 -0.2758,-7.4523 1.6934,-4.99267 5.373,-7.50518 11.0668,-7.55661 3.1355,-0.0283 3.7069,-0.22044 5.3801,-1.80885 3.1089,-2.95138 5.3178,-3.74913 11.21323,-4.04962 4.85997,-0.2477 5.61675,-0.44106 7.78649,-1.98942 2.09519,-1.49516 3.00281,-1.74791 7.07905,-1.97129 2.76205,-0.15137 5.0319,-0.56785 5.54595,-1.0176 2.78915,-2.44028 7.06779,-3.01655 12.64859,-1.7036 3.04133,0.71551 3.52442,0.69166 5.66324,-0.27958 3.22073,-1.46253 7.29263,-1.35124 11.33263,0.30973 2.90022,1.19238 3.92579,1.32926 7.92854,1.05825 4.32007,-0.2925 4.7904,-0.20876 7.79612,1.38807 2.86336,1.52119 3.57895,1.66882 6.82565,1.40821 4.36238,-0.35017 6.4293,0.53704 11.38735,4.88798 2.97201,2.60808 3.54994,2.88654 5.9909,2.88654 3.51301,0 6.92229,2.21589 11.38257,7.39821 5.72622,6.65318 10.85013,15.26971 13.88601,23.35117 0.56124,1.49397 1.20992,2.51335 1.44153,2.26529 0.2316,-0.24806 1.22962,-2.4898 2.21782,-4.98162 3.26326,-8.22862 7.76542,-15.28946 13.79895,-21.64119 4.52749,-4.76627 7.21472,-6.39186 10.56622,-6.39186 1.97679,0 2.83822,-0.45242 6.05112,-3.17801 4.84441,-4.10964 6.86413,-4.93986 11.20906,-4.60753 2.9615,0.22651 3.86689,0.0361 6.80276,-1.43057 3.15279,-1.57503 3.68926,-1.66851 7.77009,-1.35381 3.79124,0.29235 4.88485,0.14931 8.09439,-1.05876 4.50355,-1.69513 8.07364,-1.78117 11.04334,-0.26614 2.12468,1.08394 2.37525,1.09349 6.06542,0.2312 4.96122,-1.15931 8.57617,-0.8119 11.4685,1.10215 1.83882,1.21688 2.93798,1.50263 5.81874,1.51272 3.70126,0.013 7.42508,1.27921 8.85951,3.01259 0.60085,0.72608 1.7664,0.93924 5.13571,0.93924 5.9818,0 9.75821,1.21432 12.47163,4.01032 2.0047,2.06571 2.36215,2.22049 4.38201,1.89751 8.36849,-1.33818 15.11238,7.43921 11.80237,15.36117 -0.77423,1.85299 -0.73854,2.14264 0.56632,4.59675 1.85994,3.49807 1.79303,6.41596 -0.24599,10.72602 -1.31294,2.77528 -1.57981,3.97559 -1.3457,6.05261 0.44051,3.90812 -0.22374,6.25937 -2.69891,9.55352 -1.95901,2.6072 -2.24531,3.3716 -2.24531,5.99486 0,3.8971 -1.03539,6.27362 -4.21353,9.67131 -2.16393,2.31341 -2.58237,3.12328 -2.58237,4.99803 0,3.15561 -2.44961,6.68894 -6.99507,10.08968 -2.22604,1.66545 -3.76509,3.23726 -3.76509,3.84525 0,1.69223 -2.071,5.22701 -4.09143,6.98325 -1.04108,0.90494 -3.42566,2.36844 -5.29908,3.25221 -2.78742,1.31495 -3.65359,2.07317 -4.76792,4.17372 -1.71298,3.22899 -4.53765,5.11154 -10.0592,6.70412 -2.38431,0.6877 -4.39804,1.47297 -4.47495,1.74505 -0.0769,0.27208 1.62177,1.59157 3.77483,2.93221 16.4506,10.24325 28.88202,32.46605 28.88202,51.63041 0,5.80386 1.67405,9.04135 6.562,12.69047 4.35855,3.25389 10.70589,9.91502 13.82582,14.50933 14.69337,21.63694 14.08742,51.27701 -1.46997,71.90417 -2.96614,3.93273 -3.32056,4.74513 -5.06485,11.60964 -1.03153,4.05956 -2.27684,8.49615 -2.76734,9.8591 -0.4905,1.36294 -0.89284,4.03882 -0.8941,5.9464 -0.005,7.78 -2.69979,19.05096 -6.56786,27.47111 -7.19855,15.670101 -22.06295,29.193606 -38.71918,35.22638 -2.01547,0.729992 -6.73012,3.39226 -10.477,5.916157 -7.94409,5.351124 -14.66672,9.098033 -22.54195,12.563915 -4.9374,2.17294 -6.17978,3.025955 -9.96659,6.843025 -9.26456,9.338591 -21.36139,15.870693 -34.14503,18.437807 -4.27143,0.857755 -15.07598,1.530531 -18.59484,1.157855 z"
             id="path3977"
             inkscape:connector-curvature="0" />
          <path
             style="fill:#72a626"
             d="m -892.53343,-31.267521 c -13.01029,-2.481055 -25.68835,-9.092607 -34.83031,-18.163864 -2.94714,-2.924351 -4.48902,-3.929197 -8.68061,-5.657211 -10.93227,-4.506899 -22.00044,-10.7538 -32.56364,-18.379005 -2.02461,-1.461496 -4.82792,-3.144051 -6.22957,-3.73902 -10.273,-4.360645 -21.31287,-13.751796 -27.85014,-23.690969 -5.4366,-8.2656 -8.4863,-15.66188 -10.599,-25.70492 -0.573,-2.72391 -2.1089,-7.71184 -3.4132,-11.0843 -1.3043,-3.37247 -3.2775,-9.4519 -4.3849,-13.50987 -1.8529,-6.78952 -2.2758,-7.72349 -5.3019,-11.70746 -18.2032,-23.96537 -16.1568,-58.25488 4.7649,-79.83839 2.2137,-2.28371 5.245,-5.08267 6.7363,-6.21992 1.5132,-1.15401 3.4531,-3.38202 4.3899,-5.042 1.4602,-2.5873 1.6789,-3.54644 1.6809,-7.37187 0.01,-12.20259 4.2908,-25.94357 11.39539,-36.54679 3.6798,-5.49187 13.02117,-14.43284 18.80647,-18.00034 2.75151,-1.69671 5.00006,-3.33137 4.99679,-3.63256 -0.003,-0.3012 -1.73095,-1.12951 -3.83926,-1.8407 -4.17428,-1.40809 -6.52907,-3.27157 -8.17362,-6.46824 -0.82836,-1.61016 -1.89282,-2.45033 -4.86892,-3.84302 -4.76623,-2.23039 -7.98591,-5.48415 -8.47919,-8.56893 -0.28242,-1.76618 -0.86746,-2.64407 -2.69346,-4.0418 -6.1605,-4.71543 -7.8721,-6.96047 -8.5526,-11.2176 -0.2565,-1.60481 -0.9944,-3.17755 -1.9928,-4.24743 -3.5413,-3.79487 -4.5297,-5.89046 -4.5297,-9.60426 0,-3.20524 -0.1925,-3.75787 -2.2877,-6.56604 -1.2582,-1.68643 -2.4263,-3.70751 -2.5957,-4.49129 -0.1695,-0.78378 -0.3885,-1.69733 -0.4867,-2.03012 -0.098,-0.33279 0.022,-1.6998 0.2662,-3.0378 0.3823,-2.09022 0.2147,-2.87028 -1.1899,-5.54043 -2.1137,-4.01838 -2.1807,-7.46032 -0.2169,-11.15364 1.1767,-2.21311 1.306,-2.87507 0.7609,-3.89371 -1.1494,-2.14769 -1.5086,-4.86109 -0.9642,-7.28409 1.1654,-5.18662 4.8361,-7.8448 10.833,-7.8448 3.2988,0 3.7359,-0.14726 5.261,-1.77259 2.5876,-2.75749 5.9941,-4.00572 11.83137,-4.33525 4.15464,-0.23454 5.44383,-0.53107 6.82173,-1.56906 2.25414,-1.6981 6.23605,-2.70881 9.1165,-2.314 1.90412,0.26099 2.68229,0.0615 4.23839,-1.08656 3.17183,-2.3401 5.6609,-2.72275 10.85929,-1.66943 4.45885,0.90348 4.60918,0.8972 7.41487,-0.30977 3.51468,-1.51198 6.50945,-1.2779 11.53495,0.9016 3.02193,1.31057 3.76149,1.43467 5.31742,0.89228 2.97457,-1.03695 5.68578,-0.71706 9.25279,1.09171 2.98525,1.51377 3.73035,1.6663 6.57033,1.34499 4.09035,-0.46277 7.07744,0.78164 11.50844,4.79437 2.77544,2.51346 3.51562,2.89906 5.5649,2.89906 3.56901,0 6.84534,1.92042 10.95105,6.41892 6.32689,6.93221 11.79356,16.10627 14.65869,24.59991 0.70689,2.09556 1.51649,3.77172 1.7991,3.7248 0.28262,-0.0469 1.16489,-1.83084 1.96059,-3.96427 3.68693,-9.8853 8.5899,-17.92759 14.91432,-24.46385 4.63241,-4.78757 7.21965,-6.31551 10.69399,-6.31551 2.00347,0 2.77197,-0.32035 4.10407,-1.71076 0.90146,-0.94091 3.01891,-2.66112 4.70545,-3.82268 2.90461,-2.00048 3.30936,-2.11399 7.66971,-2.15074 3.78375,-0.0319 5.15781,-0.30817 7.71806,-1.55186 3.28577,-1.59611 6.26844,-1.91194 8.83628,-0.93565 1.25875,0.47858 2.22682,0.31664 5.184,-0.8672 5.39592,-2.16014 7.86206,-2.34957 11.30519,-0.86837 2.83699,1.22044 2.96944,1.22603 7.44047,0.31411 5.31117,-1.08327 7.51429,-0.80307 10.80267,1.37392 1.93023,1.27786 2.83098,1.5258 4.75527,1.3089 3.02178,-0.34059 6.6774,0.63863 8.70754,2.33247 1.31039,1.09332 2.46125,1.37695 6.68006,1.64626 6.74527,0.43061 8.97598,1.16529 11.64642,3.83572 2.09315,2.09316 2.43269,2.22853 5.5896,2.22853 5.47108,0 8.30384,1.63652 10.29298,5.9464 1.3041,2.82562 1.33864,4.93034 0.13597,8.2861 -0.9182,2.56201 -0.90986,2.67162 0.35946,4.72542 1.8779,3.03849 1.79913,7.06569 -0.21481,10.98336 -1.3271,2.58157 -1.50627,3.45491 -1.18621,5.78202 0.52956,3.8504 -0.0197,5.6938 -2.83666,9.52039 -2.18165,2.96355 -2.42398,3.59317 -2.15496,5.59888 0.4326,3.22521 -0.65452,5.92785 -3.75419,9.33316 -2.20487,2.42228 -2.7567,3.45656 -2.99484,5.6132 -0.40329,3.65221 -2.19893,6.27814 -6.54056,9.56484 -3.10716,2.35218 -3.86072,3.26637 -4.6749,5.67137 -1.26784,3.74511 -3.63917,6.11173 -8.46132,8.44454 -2.87585,1.39124 -4.1057,2.33406 -4.59939,3.52593 -1.68206,4.06084 -4.60039,6.04064 -11.47392,7.7839 -2.34495,0.59472 -4.10759,1.3532 -4.18546,1.80102 -0.0742,0.42664 2.16761,2.29776 4.99798,4.17159 5.63769,3.7324 13.10039,11.05131 16.7471,16.42441 7.00813,10.32587 11.50459,24.48928 11.51607,36.27445 0.004,4.35018 1.8643,7.49484 6.59229,11.14503 19.61409,15.14285 28.51078,40.40833 22.52903,63.97959 -2.04247,8.04843 -5.89788,15.90516 -11.34756,23.12462 -1.73157,2.2939 -2.59282,4.18851 -3.33639,7.33952 -0.55127,2.33608 -1.71503,6.67094 -2.58615,9.63301 -0.99774,3.39261 -1.80943,7.9836 -2.19345,12.40616 -0.70543,8.12418 -1.5553,12.15378 -3.94342,18.69737 -6.61719,18.131541 -21.54974,33.094563 -39.60201,39.682822 -2.56401,0.935749 -6.3452,2.932269 -8.59857,4.540148 -6.61985,4.723586 -16.65318,10.474767 -24.22385,13.88529 -5.85736,2.638692 -7.55228,3.686845 -9.54392,5.902027 -7.88548,8.770556 -20.20282,15.997935 -32.98177,19.352539 -5.68151,1.491455 -21.09485,1.960434 -27.05791,0.823283 z"
             id="path3975"
             inkscape:connector-curvature="0" />
          <path
             style="fill:#b90f40"
             d="m -892.53343,-31.267521 c -13.01029,-2.481055 -25.68835,-9.092607 -34.83031,-18.163864 -2.94714,-2.924351 -4.48902,-3.929197 -8.68061,-5.657211 -10.93227,-4.506899 -22.00044,-10.7538 -32.56364,-18.379005 -2.02461,-1.461496 -4.82792,-3.144051 -6.22957,-3.73902 -10.273,-4.360645 -21.31287,-13.751796 -27.85014,-23.690969 -5.4366,-8.2656 -8.4863,-15.66188 -10.599,-25.70492 -0.573,-2.72391 -2.1089,-7.71184 -3.4132,-11.0843 -1.3043,-3.37247 -3.2775,-9.4519 -4.3849,-13.50987 -1.8529,-6.78952 -2.2758,-7.72349 -5.3019,-11.70746 -18.2032,-23.96537 -16.1568,-58.25488 4.7649,-79.83839 2.2137,-2.28371 5.245,-5.08267 6.7363,-6.21992 1.5132,-1.15401 3.4531,-3.38202 4.3899,-5.042 1.4602,-2.5873 1.6789,-3.54644 1.6809,-7.37187 0.01,-12.20259 4.2908,-25.94357 11.39539,-36.54679 3.6798,-5.49187 13.02117,-14.43284 18.80647,-18.00034 2.75151,-1.69671 5.00006,-3.33137 4.99679,-3.63256 -0.003,-0.3012 -1.73095,-1.12951 -3.83926,-1.8407 -4.17428,-1.40809 -6.52907,-3.27157 -8.17362,-6.46824 -0.82836,-1.61016 -1.89282,-2.45033 -4.86892,-3.84302 -4.76623,-2.23039 -7.98591,-5.48415 -8.47919,-8.56893 -0.28242,-1.76618 -0.86746,-2.64407 -2.69346,-4.0418 -6.1605,-4.71543 -7.8721,-6.96047 -8.5526,-11.2176 -0.2565,-1.60481 -0.9944,-3.17755 -1.9928,-4.24743 -3.5413,-3.79487 -4.5297,-5.89046 -4.5297,-9.60426 0,-3.20524 -0.1925,-3.75787 -2.2877,-6.56604 -1.2582,-1.68643 -2.4263,-3.70751 -2.5957,-4.49129 -0.1695,-0.78378 -0.3885,-1.69733 -0.4867,-2.03012 -0.098,-0.33279 0.022,-1.6998 0.2662,-3.0378 0.3823,-2.09022 0.2147,-2.87028 -1.1899,-5.54043 -2.1137,-4.01838 -2.1807,-7.46032 -0.2169,-11.15364 1.1767,-2.21311 1.306,-2.87507 0.7609,-3.89371 -1.1494,-2.14769 -1.5086,-4.86109 -0.9642,-7.28409 1.1654,-5.18662 4.8361,-7.8448 10.833,-7.8448 3.2988,0 3.7359,-0.14726 5.261,-1.77259 2.5876,-2.75749 5.9941,-4.00572 11.83137,-4.33525 4.15464,-0.23454 5.44383,-0.53107 6.82173,-1.56906 2.25414,-1.6981 6.23605,-2.70881 9.1165,-2.314 1.90412,0.26099 2.68229,0.0615 4.23839,-1.08656 3.17183,-2.3401 5.6609,-2.72275 10.85929,-1.66943 4.45885,0.90348 4.60918,0.8972 7.41487,-0.30977 3.51468,-1.51198 6.50945,-1.2779 11.53495,0.9016 3.02193,1.31057 3.76149,1.43467 5.31742,0.89228 2.97457,-1.03695 5.68578,-0.71706 9.25279,1.09171 2.98525,1.51377 3.73035,1.6663 6.57033,1.34499 4.09035,-0.46277 7.07744,0.78164 11.50844,4.79437 2.77544,2.51346 3.51562,2.89906 5.5649,2.89906 3.56901,0 6.84534,1.92042 10.95105,6.41892 6.32689,6.93221 11.79356,16.10627 14.65869,24.59991 0.70689,2.09556 1.51649,3.77172 1.7991,3.7248 0.28262,-0.0469 1.16489,-1.83084 1.96059,-3.96427 3.68693,-9.8853 8.5899,-17.92759 14.91432,-24.46385 4.63241,-4.78757 7.21965,-6.31551 10.69399,-6.31551 2.00347,0 2.77197,-0.32035 4.10407,-1.71076 0.90146,-0.94091 3.01891,-2.66112 4.70545,-3.82268 2.90461,-2.00048 3.30936,-2.11399 7.66971,-2.15074 3.78375,-0.0319 5.15781,-0.30817 7.71806,-1.55186 3.28577,-1.59611 6.26844,-1.91194 8.83628,-0.93565 1.25875,0.47858 2.22682,0.31664 5.184,-0.8672 5.39592,-2.16014 7.86206,-2.34957 11.30519,-0.86837 2.83699,1.22044 2.96944,1.22603 7.44047,0.31411 5.31117,-1.08327 7.51429,-0.80307 10.80267,1.37392 1.93023,1.27786 2.83098,1.5258 4.75527,1.3089 3.02178,-0.34059 6.6774,0.63863 8.70754,2.33247 1.31039,1.09332 2.46125,1.37695 6.68006,1.64626 6.74527,0.43061 8.97598,1.16529 11.64642,3.83572 2.09315,2.09316 2.43269,2.22853 5.5896,2.22853 5.47108,0 8.30384,1.63652 10.29298,5.9464 1.3041,2.82562 1.33864,4.93034 0.13597,8.2861 -0.9182,2.56201 -0.90986,2.67162 0.35946,4.72542 1.8779,3.03849 1.79913,7.06569 -0.21481,10.98336 -1.3271,2.58157 -1.50627,3.45491 -1.18621,5.78202 0.52956,3.8504 -0.0197,5.6938 -2.83666,9.52039 -2.18165,2.96355 -2.42398,3.59317 -2.15496,5.59888 0.4326,3.22521 -0.65452,5.92785 -3.75419,9.33316 -2.20487,2.42228 -2.7567,3.45656 -2.99484,5.6132 -0.40329,3.65221 -2.19893,6.27814 -6.54056,9.56484 -3.10716,2.35218 -3.86072,3.26637 -4.6749,5.67137 -1.26784,3.74511 -3.63917,6.11173 -8.46132,8.44454 -2.87585,1.39124 -4.1057,2.33406 -4.59939,3.52593 -1.68206,4.06084 -4.60039,6.04064 -11.47392,7.7839 -2.34495,0.59472 -4.10759,1.3532 -4.18546,1.80102 -0.0742,0.42664 2.16761,2.29776 4.99798,4.17159 5.63769,3.7324 13.10039,11.05131 16.7471,16.42441 7.00813,10.32587 11.50459,24.48928 11.51607,36.27445 0.004,4.35018 1.8643,7.49484 6.59229,11.14503 19.61409,15.14285 28.51078,40.40833 22.52903,63.97959 -2.04247,8.04843 -5.89788,15.90516 -11.34756,23.12462 -1.73157,2.2939 -2.59282,4.18851 -3.33639,7.33952 -0.55127,2.33608 -1.71503,6.67094 -2.58615,9.63301 -0.99774,3.39261 -1.80943,7.9836 -2.19345,12.40616 -0.70543,8.12418 -1.5553,12.15378 -3.94342,18.69737 -6.61719,18.131541 -21.54974,33.094563 -39.60201,39.682822 -2.56401,0.935749 -6.3452,2.932269 -8.59857,4.540148 -6.61985,4.723586 -16.65318,10.474767 -24.22385,13.88529 -5.85736,2.638692 -7.55228,3.686845 -9.54392,5.902027 -7.88548,8.770556 -20.20282,15.997935 -32.98177,19.352539 -5.68151,1.491455 -21.09485,1.960434 -27.05791,0.823283 z m -55.11279,-292.225529 c 6.09121,-0.41803 16.84188,-3.2881 22.40771,-5.98212 6.18809,-2.99521 10.59594,-7.24714 13.44579,-12.97018 1.14534,-2.30007 2.08245,-4.63147 2.08245,-5.1809 0,-1.48106 -10.52345,-11.2166 -18.95412,-17.53499 -12.01599,-9.00543 -24.81347,-17.00455 -42.10707,-26.31922 -5.453,-2.9371 -9.03428,-5.18645 -8.73462,-5.48611 0.59216,-0.59216 9.10866,2.26884 18.08548,6.07555 20.3558,8.63209 39.93073,19.70131 53.33417,30.15936 6.02339,4.69976 6.21327,4.72564 10.60733,1.44573 5.55142,-4.14382 8.12072,-9.1501 8.14305,-15.86678 0.0246,-7.39927 -4.25881,-19.05251 -10.11928,-27.52998 -3.10735,-4.49494 -6.87141,-8.40626 -7.22137,-7.5039 -0.79553,2.05127 -1.77242,3.41222 -2.55787,3.56348 -0.56721,0.10924 -2.55447,-1.74528 -5.25977,-4.90845 -2.39147,-2.79621 -4.96926,-5.491 -5.72843,-5.98843 -1.35594,-0.88844 -1.38031,-0.87474 -1.38031,0.77604 0,0.95728 -0.58485,2.36037 -1.35903,3.2604 l -1.35902,1.57996 -4.98976,-4.79037 -4.98976,-4.79037 -0.45846,2.20658 c -0.92626,4.45813 -2.09522,4.67885 -6.36423,1.20169 -3.44095,-2.80269 -8.13542,-5.70213 -8.55422,-5.28333 -0.15038,0.15038 -0.0281,0.91853 0.27162,1.707 0.65505,1.72291 0.24597,3.62518 -0.87183,4.05412 -0.44725,0.17163 -2.5499,-0.57302 -4.67254,-1.65478 -4.43079,-2.25806 -8.21288,-3.67583 -9.80572,-3.67583 -1.0745,0 -1.07269,0.0379 0.0712,1.49218 1.34917,1.71519 1.54471,4.06426 0.37566,4.51286 -0.43896,0.16845 -2.9105,-0.36104 -5.49231,-1.17663 -2.58181,-0.81559 -5.85422,-1.63667 -7.27202,-1.82462 -2.53412,-0.33592 -2.56102,-0.32272 -1.58675,0.77872 1.25992,1.42437 1.31111,4.46836 0.0831,4.93961 -0.49941,0.19163 -2.60189,-0.18146 -4.67218,-0.8291 -4.94086,-1.54562 -14.24117,-2.196 -14.24117,-0.9959 0,0.45869 0.63712,1.43252 1.41581,2.16406 2.99413,2.81285 1.46229,3.39795 -8.89601,3.39795 -3.7248,0 -6.6874,0.19113 -6.5835,0.42474 0.1038,0.23361 1.2936,2.6145 2.644,5.29087 1.3504,2.67637 2.4972,5.73452 2.5484,6.79589 l 0.093,1.92977 -3.3979,0.079 c -2.5302,0.0588 -3.3604,0.27574 -3.2511,0.84948 0.081,0.42379 2.4608,2.97969 5.2889,5.6798 6.2936,6.0087 6.4168,6.84642 1.0719,7.28554 l -3.676,0.30201 5.8764,5.83571 c 6.52928,6.48396 6.65662,7.04661 1.7831,7.87858 l -2.4726,0.4221 2.7866,2.31417 c 1.5327,1.2728 4.37737,3.39265 6.32156,4.71077 1.9442,1.31813 3.69317,2.65269 3.88661,2.96568 0.54449,0.88101 -0.72115,1.82689 -3.33807,2.49473 l -2.38446,0.60853 3.68111,2.41242 c 2.02461,1.32684 5.66331,3.34662 8.086,4.4884 3.54067,1.66866 4.374,2.29818 4.24743,3.20861 -0.0968,0.696 -0.83287,1.35097 -1.90944,1.69898 -0.96359,0.31147 -1.85555,0.82117 -1.98214,1.13264 -0.12658,0.31148 3.33769,1.74714 7.69839,3.19036 8.84948,2.92884 9.6325,3.65492 6.15449,5.707 l -2.13838,1.26168 2.51364,0.72777 c 1.38251,0.40027 5.38739,1.01911 8.89974,1.3752 3.51235,0.35609 6.81519,0.9612 7.33965,1.34469 0.89297,0.65296 0.89175,0.79156 -0.0191,2.18173 -0.53498,0.81645 -1.22165,1.48446 -1.52595,1.48446 -0.3043,0 -0.55327,0.23712 -0.55327,0.52694 0,0.62624 1.98413,1.03496 3.96427,0.81662 0.7787,-0.0859 3.33066,-0.28752 5.67102,-0.44814 z m 144.30385,0.23723 1.50528,0 -1.5516,-1.43873 c -1.76467,-1.63629 -2.02584,-3.44169 -0.56054,-3.87478 0.54509,-0.16111 2.90242,-0.45067 5.2385,-0.64347 4.08642,-0.33725 9.30625,-1.14685 11.54902,-1.79125 0.95179,-0.27347 0.8724,-0.46425 -0.70791,-1.70102 -3.05124,-2.38796 -2.4629,-3.16782 3.74174,-4.95974 3.03692,-0.87707 6.79589,-2.16798 8.35328,-2.86868 2.3557,-1.05987 2.64126,-1.33834 1.69898,-1.65675 -2.14028,-0.72323 -3.87377,-1.73734 -4.09055,-2.39303 -0.12003,-0.36309 2.56122,-2.10014 5.99797,-3.88578 3.41828,-1.77605 7.04648,-3.92328 8.06267,-4.77163 l 1.8476,-1.54244 -2.65248,-0.66791 c -3.92327,-0.98789 -3.53826,-2.11048 2.01969,-5.8888 2.5697,-1.74689 5.39045,-3.92749 6.26834,-4.84577 l 1.59617,-1.6696 -2.62022,-0.39293 c -4.17786,-0.6265 -3.92436,-1.4961 2.17774,-7.47069 3.00402,-2.94123 5.46185,-5.59228 5.46185,-5.89121 0,-0.29893 -1.37045,-0.54351 -3.04545,-0.54351 -3.197,0 -4.60564,-0.85353 -4.00253,-2.42523 0.18358,-0.47839 1.82324,-2.04 3.64369,-3.47022 2.98285,-2.34347 6.80223,-6.47214 6.80223,-7.35308 0,-0.18879 -1.53707,-0.34325 -3.41571,-0.34325 -2.3329,0 -3.50807,-0.24063 -3.707,-0.75905 -0.40827,-1.06392 1.65455,-6.33645 4.00841,-10.24542 1.08991,-1.80997 1.98165,-3.36861 1.98165,-3.46363 0,-0.095 -3.68324,-0.25528 -8.185,-0.35613 -5.07963,-0.11379 -8.42658,-0.42556 -8.82176,-0.82175 -0.47176,-0.47294 -0.18851,-1.14892 1.09305,-2.60854 0.95141,-1.08358 1.56573,-2.13425 1.36517,-2.33481 -1.08032,-1.08033 -9.87521,-0.11786 -15.62873,1.71032 -2.14069,0.68021 -2.88483,0.71664 -3.53952,0.17329 -1.08407,-0.89969 -1.05153,-2.51481 0.0856,-4.25033 0.88511,-1.35086 0.87046,-1.39589 -0.45383,-1.39589 -0.75265,0 -3.52156,0.65925 -6.15312,1.46501 -7.18103,2.19873 -7.72121,2.25405 -8.17104,0.83676 -0.24586,-0.77464 0.0321,-1.91267 0.77443,-3.17085 0.82951,-1.40591 0.94756,-1.96254 0.4162,-1.96254 -1.41645,0 -7.24324,2.24065 -10.54015,4.05313 -2.80119,1.53996 -3.45402,1.70757 -4.20935,1.0807 -1.02312,-0.84911 -1.16682,-2.9995 -0.30773,-4.60474 0.32244,-0.60248 0.43971,-1.09542 0.26061,-1.09542 -0.87927,0 -5.11708,2.54227 -8.47687,5.08529 -2.06605,1.56379 -4.11626,2.84325 -4.55602,2.84325 -1.0761,0 -1.97207,-1.79872 -1.97207,-3.95905 l 0,-1.76822 -1.77183,1.02308 c -0.9745,0.5627 -3.2044,2.61573 -4.95533,4.56229 -1.75094,1.94657 -3.37465,3.53936 -3.60826,3.53953 -1.03733,5.7e-4 -2.69004,-2.41406 -2.69004,-3.93053 0,-0.91605 -0.21956,-1.80125 -0.48792,-1.9671 -0.48962,-0.3026 -6.22719,5.4173 -9.52033,9.49099 -2.11917,2.62145 -3.62569,2.60277 -4.40855,-0.0547 -0.29802,-1.01164 -0.85348,-1.83936 -1.23435,-1.83936 -1.19627,0 -8.04941,9.11852 -10.6776,14.20718 -1.38423,2.68013 -3.34049,7.26963 -4.34725,10.1989 -1.52118,4.42604 -1.83379,6.18715 -1.85014,10.42286 -0.0167,4.3198 0.20355,5.57577 1.44448,8.23754 0.80529,1.72735 2.27369,4.06263 3.2631,5.18951 1.96853,2.24202 6.77646,5.54988 8.0468,5.53619 0.43995,-0.005 2.97231,-1.72495 5.62748,-3.82269 13.68943,-10.81546 33.58676,-21.98752 55.15553,-30.96904 8.81765,-3.67177 16.1479,-6.20337 16.61356,-5.7377 0.60862,0.60861 -0.83738,1.65689 -5.55115,4.02429 -21.85636,10.97692 -47.24895,28.03413 -59.48121,39.95589 -5.70503,5.56022 -5.55465,5.02329 -2.96133,10.57307 1.79289,3.83688 6.36404,8.82665 10.59832,11.56893 3.3404,2.16336 12.39687,5.41742 18.57924,6.67566 3.86369,0.78635 12.3146,1.64362 13.37654,1.35695 0.41482,-0.11198 1.4316,-0.20361 2.25951,-0.20361 z"
             id="path3973"
             inkscape:connector-curvature="0" />
          <path
             style="fill:#9d1139"
             d="m -892.53343,-31.267521 c -13.01029,-2.481055 -25.68835,-9.092607 -34.83031,-18.163864 -2.94714,-2.924351 -4.48902,-3.929197 -8.68061,-5.657211 -10.93227,-4.506899 -22.00044,-10.7538 -32.56364,-18.379005 -2.02461,-1.461496 -4.82792,-3.144051 -6.22957,-3.73902 -10.273,-4.360645 -21.31287,-13.751796 -27.85014,-23.690969 -5.4366,-8.2656 -8.4863,-15.66188 -10.599,-25.70492 -0.573,-2.72391 -2.1089,-7.71184 -3.4132,-11.0843 -1.3043,-3.37247 -3.2775,-9.4519 -4.3849,-13.50987 -1.8529,-6.78952 -2.2758,-7.72349 -5.3019,-11.70746 -18.2032,-23.96537 -16.1568,-58.25488 4.7649,-79.83839 2.2137,-2.28371 5.245,-5.08267 6.7363,-6.21992 1.5132,-1.15401 3.4531,-3.38202 4.3899,-5.042 1.4602,-2.5873 1.6789,-3.54644 1.6809,-7.37187 0.01,-12.20259 4.2908,-25.94357 11.39539,-36.54679 3.6798,-5.49187 13.02117,-14.43284 18.80647,-18.00034 2.75151,-1.69671 5.00006,-3.33137 4.99679,-3.63256 -0.003,-0.3012 -1.73095,-1.12951 -3.83926,-1.8407 -4.17428,-1.40809 -6.52907,-3.27157 -8.17362,-6.46824 -0.82836,-1.61016 -1.89282,-2.45033 -4.86892,-3.84302 -4.76623,-2.23039 -7.98591,-5.48415 -8.47919,-8.56893 -0.28242,-1.76618 -0.86746,-2.64407 -2.69346,-4.0418 -6.1605,-4.71543 -7.8721,-6.96047 -8.5526,-11.2176 -0.2565,-1.60481 -0.9944,-3.17755 -1.9928,-4.24743 -3.5413,-3.79487 -4.5297,-5.89046 -4.5297,-9.60426 0,-3.20524 -0.1925,-3.75787 -2.2877,-6.56604 -1.2582,-1.68643 -2.4263,-3.70751 -2.5957,-4.49129 -0.1695,-0.78378 -0.3885,-1.69733 -0.4867,-2.03012 -0.098,-0.33279 0.022,-1.6998 0.2662,-3.0378 0.3823,-2.09022 0.2147,-2.87028 -1.1899,-5.54043 -2.1137,-4.01838 -2.1807,-7.46032 -0.2169,-11.15364 1.1767,-2.21311 1.306,-2.87507 0.7609,-3.89371 -1.1494,-2.14769 -1.5086,-4.86109 -0.9642,-7.28409 1.1654,-5.18662 4.8361,-7.8448 10.833,-7.8448 3.2988,0 3.7359,-0.14726 5.261,-1.77259 2.5876,-2.75749 5.9941,-4.00572 11.83137,-4.33525 4.15464,-0.23454 5.44383,-0.53107 6.82173,-1.56906 2.25414,-1.6981 6.23605,-2.70881 9.1165,-2.314 1.90412,0.26099 2.68229,0.0615 4.23839,-1.08656 3.17183,-2.3401 5.6609,-2.72275 10.85929,-1.66943 4.45885,0.90348 4.60918,0.8972 7.41487,-0.30977 3.51468,-1.51198 6.50945,-1.2779 11.53495,0.9016 3.02193,1.31057 3.76149,1.43467 5.31742,0.89228 2.97457,-1.03695 5.68578,-0.71706 9.25279,1.09171 2.98525,1.51377 3.73035,1.6663 6.57033,1.34499 4.09035,-0.46277 7.07744,0.78164 11.50844,4.79437 2.77544,2.51346 3.51562,2.89906 5.5649,2.89906 3.56901,0 6.84534,1.92042 10.95105,6.41892 6.32689,6.93221 11.79356,16.10627 14.65869,24.59991 0.70689,2.09556 1.51649,3.77172 1.7991,3.7248 0.28262,-0.0469 1.16489,-1.83084 1.96059,-3.96427 3.68693,-9.8853 8.5899,-17.92759 14.91432,-24.46385 4.63241,-4.78757 7.21965,-6.31551 10.69399,-6.31551 2.00347,0 2.77197,-0.32035 4.10407,-1.71076 0.90146,-0.94091 3.01891,-2.66112 4.70545,-3.82268 2.90461,-2.00048 3.30936,-2.11399 7.66971,-2.15074 3.78375,-0.0319 5.15781,-0.30817 7.71806,-1.55186 3.28577,-1.59611 6.26844,-1.91194 8.83628,-0.93565 1.25875,0.47858 2.22682,0.31664 5.184,-0.8672 5.39592,-2.16014 7.86206,-2.34957 11.30519,-0.86837 2.83699,1.22044 2.96944,1.22603 7.44047,0.31411 5.31117,-1.08327 7.51429,-0.80307 10.80267,1.37392 1.93023,1.27786 2.83098,1.5258 4.75527,1.3089 3.02178,-0.34059 6.6774,0.63863 8.70754,2.33247 1.31039,1.09332 2.46125,1.37695 6.68006,1.64626 6.74527,0.43061 8.97598,1.16529 11.64642,3.83572 2.09315,2.09316 2.43269,2.22853 5.5896,2.22853 5.47108,0 8.30384,1.63652 10.29298,5.9464 1.3041,2.82562 1.33864,4.93034 0.13597,8.2861 -0.9182,2.56201 -0.90986,2.67162 0.35946,4.72542 1.8779,3.03849 1.79913,7.06569 -0.21481,10.98336 -1.3271,2.58157 -1.50627,3.45491 -1.18621,5.78202 0.52956,3.8504 -0.0197,5.6938 -2.83666,9.52039 -2.18165,2.96355 -2.42398,3.59317 -2.15496,5.59888 0.4326,3.22521 -0.65452,5.92785 -3.75419,9.33316 -2.20487,2.42228 -2.7567,3.45656 -2.99484,5.6132 -0.40329,3.65221 -2.19893,6.27814 -6.54056,9.56484 -3.10716,2.35218 -3.86072,3.26637 -4.6749,5.67137 -1.26784,3.74511 -3.63917,6.11173 -8.46132,8.44454 -2.87585,1.39124 -4.1057,2.33406 -4.59939,3.52593 -1.68206,4.06084 -4.60039,6.04064 -11.47392,7.7839 -2.34495,0.59472 -4.10759,1.3532 -4.18546,1.80102 -0.0742,0.42664 2.16761,2.29776 4.99798,4.17159 5.63769,3.7324 13.10039,11.05131 16.7471,16.42441 7.00813,10.32587 11.50459,24.48928 11.51607,36.27445 0.004,4.35018 1.8643,7.49484 6.59229,11.14503 19.61409,15.14285 28.51078,40.40833 22.52903,63.97959 -2.04247,8.04843 -5.89788,15.90516 -11.34756,23.12462 -1.73157,2.2939 -2.59282,4.18851 -3.33639,7.33952 -0.55127,2.33608 -1.71503,6.67094 -2.58615,9.63301 -0.99774,3.39261 -1.80943,7.9836 -2.19345,12.40616 -0.70543,8.12418 -1.5553,12.15378 -3.94342,18.69737 -6.61719,18.131541 -21.54974,33.094563 -39.60201,39.682822 -2.56401,0.935749 -6.3452,2.932269 -8.59857,4.540148 -6.61985,4.723586 -16.65318,10.474767 -24.22385,13.88529 -5.85736,2.638692 -7.55228,3.686845 -9.54392,5.902027 -7.88548,8.770556 -20.20282,15.997935 -32.98177,19.352539 -5.68151,1.491455 -21.09485,1.960434 -27.05791,0.823283 z m 22.19274,-13.859398 c 10.04349,-2.072945 19.34125,-7.156951 26.71678,-14.608718 7.57862,-7.656976 8.56853,-11.222712 4.32272,-15.570824 -2.46906,-2.528547 -10.8606,-6.063991 -17.74093,-7.474455 -16.49952,-3.382377 -39.18938,-2.275315 -52.31421,2.552468 -10.71129,3.939992 -15.57386,8.643484 -14.27713,13.81006 0.47905,1.908711 7.68754,9.436151 11.93858,12.466829 6.32665,4.510439 14.79296,8.060504 22.17959,9.300284 5.03952,0.84584 13.82824,0.627828 19.1746,-0.475644 z m -73.16473,-40.609813 c 2.98956,-1.018648 6.11286,-4.199963 7.81627,-7.961465 1.84972,-4.08454 1.96561,-11.301903 0.29747,-18.524773 -1.51593,-6.5638 -6.29914,-16.97097 -10.44136,-22.71802 -3.52863,-4.89573 -13.06684,-14.85339 -17.01285,-17.76102 -10.76445,-7.93178 -21.78556,-10.64904 -28.87109,-7.11817 -5.46141,2.72153 -7.63913,6.8358 -8.58612,16.22127 -1.1892,11.78723 1.80482,24.00652 8.36843,34.15311 7.94629,12.284066 20.41293,20.828471 34.65316,23.750664 5.10686,1.047961 10.62734,1.031288 13.77609,-0.04162 z m 136.66024,0.290507 c 21.51388,-2.99231 38.85261,-18.052535 44.97857,-39.067885 1.90206,-6.52512 2.19021,-19.48488 0.58464,-26.29598 -2.85217,-12.09946 -6.83162,-16.14974 -15.85136,-16.13352 -7.87784,0.0142 -15.42238,3.52759 -24.12586,11.23521 -7.08264,6.27225 -10.35056,10.03908 -15.55163,17.92592 -4.79753,7.27489 -6.28932,10.0959 -8.47814,16.03229 -2.67514,7.25537 -3.62589,13.10923 -3.26367,20.09458 0.46536,8.974038 2.70854,12.974654 8.64292,15.414232 3.73899,1.537066 6.51541,1.706052 13.06453,0.795153 z m -67.73814,-15.276045 c 5.58575,-0.69626 13.65943,-3.25232 18.10752,-5.73266 14.12502,-7.87641 22.87392,-23.07502 21.83194,-37.92648 -0.46832,-6.67507 -1.60798,-10.67213 -4.61663,-16.19156 -3.05434,-5.60326 -5.70687,-8.76933 -10.83281,-12.93006 -4.98094,-4.04305 -10.28869,-6.54318 -17.97817,-8.46833 -5.61119,-1.40482 -6.87777,-1.52613 -13.02545,-1.24753 -5.19459,0.23542 -7.95168,0.67058 -11.62363,1.83458 -13.87556,4.39855 -23.02634,12.16022 -28.62022,24.27562 -3.45374,7.48021 -4.30353,18.74378 -1.97067,26.11995 5.10754,16.14922 18.3684,27.30337 35.6675,30.00111 6.19198,0.96561 7.26764,0.98747 13.06062,0.26536 z m -132.63728,-65.32556 c 1.3914,-0.71951 4.6628,-4.93678 6.2575,-8.06682 1.97583,-3.87804 4.90874,-13.48487 6.3711,-20.86873 2.08288,-10.51707 2.65868,-18.07018 2.15864,-28.31621 -0.44836,-9.18735 -1.59838,-13.98866 -4.06826,-16.98506 -1.48132,-1.79709 -1.96493,-2.04644 -3.40892,-1.75765 -2.48616,0.49724 -8.24196,4.83089 -12.44356,9.36902 -14.208,15.34593 -16.8154,37.90292 -6.5253,56.45145 2.442,4.40194 8.0689,10.97047 9.3977,10.97047 0.3965,0 1.414,-0.35841 2.2611,-0.79647 z m 253.63737,-1.18106 c 0.66342,-0.46468 2.47449,-2.43973 4.02459,-4.38901 15.69818,-19.74066 13.64879,-47.74569 -4.75375,-64.96035 -4.37744,-4.0949 -10.13291,-7.94516 -11.8885,-7.95312 -4.81809,-0.0219 -7.19904,16.07471 -5.01168,33.88167 1.27845,10.40762 3.41735,20.81238 5.70133,27.73442 2.22497,6.74318 6.3214,14.14155 8.61964,15.56753 1.85649,1.15189 1.83465,1.1511 3.30837,0.11886 z m -176.89717,-10.18755 c 18.20168,-3.85662 35.24132,-21.34756 39.18216,-40.21991 1.50207,-7.19325 1.73427,-15.19069 0.59034,-20.33244 -2.82768,-12.70988 -9.23267,-21.37114 -19.70825,-26.65083 -10.91613,-5.50173 -25.91612,-4.80989 -37.65509,1.73675 -14.29914,7.97442 -24.76714,22.88701 -27.3635,38.98173 -1.0372,6.42958 -0.43175,15.95378 1.37105,21.56748 5.92648,18.4544 24.35642,28.99107 43.58329,24.91722 z m 116.0263,-1.49535 c 15.97085,-3.37915 26.10186,-15.02741 28.21085,-32.43584 0.73474,-6.06477 0.30667,-11.30671 -1.4979,-18.34273 -6.74373,-26.29378 -32.06975,-44.42178 -55.20815,-39.5172 -4.40457,0.93362 -11.00677,4.12376 -14.55692,7.0338 -3.59073,2.94331 -8.82852,11.1236 -10.68847,16.69307 -1.43142,4.28628 -1.5426,5.28875 -1.51794,13.68623 0.0328,11.18509 0.91373,14.84918 5.95525,24.77149 3.30459,6.50383 3.94153,7.3556 10.07675,13.47542 5.4549,5.44122 7.44812,7.01815 11.92926,9.43784 5.69666,3.07603 9.52328,4.40073 15.02964,5.20294 4.92028,0.71683 8.86356,0.71522 12.26763,-0.005 z m 44.53008,-80.34939 c 0.26615,-3.62072 -0.94804,-12.61756 -2.29038,-16.9712 -5.17465,-16.78295 -18.4038,-29.44079 -35.65003,-34.11047 -7.75059,-2.09858 -25.9584,-1.59438 -25.9584,0.71883 0,0.30948 0.35168,1.40438 0.78152,2.43311 2.10534,5.0388 22.14734,25.2662 32.34845,32.6477 1.86887,1.3523 4.67217,3.52607 6.22957,4.83058 6.71461,5.62433 20.23014,13.35705 22.93613,13.12258 1.25046,-0.10834 1.43768,-0.4203 1.60314,-2.67113 z m -217.17296,-0.56925 c 8.78029,-4.31632 14.06555,-7.91919 27.2474,-18.57402 16.07686,-12.99487 31.04195,-29.97843 28.04669,-31.8296 -1.7923,-1.10771 -8.95614,-1.83051 -15.26981,-1.54067 -22.43627,1.02997 -40.84809,16.15508 -46.48232,38.18473 -1.14466,4.47555 -2.04522,13.66735 -1.48268,15.13329 0.56201,1.46458 3.03851,1.03615 7.94072,-1.37373 z m 120.14418,-15.05836 c 11.87915,-2.1225 19.78447,-5.78166 24.12155,-11.1652 3.30153,-4.09815 4.14384,-6.7343 3.32433,-10.40418 -0.86248,-3.86233 -2.79926,-6.88566 -6.76034,-10.55292 -4.49153,-4.15835 -7.48122,-6.17781 -13.17641,-8.9003 -7.4633,-3.56771 -12.43317,-4.64794 -21.38407,-4.64794 -5.99579,0 -8.62291,0.25962 -12.17597,1.20325 -8.69111,2.30823 -18.66474,8.06269 -23.77174,13.71553 -10.22504,11.3179 -1.35507,23.99545 20.83464,29.77827 7.64565,1.99252 20.81042,2.43463 28.98801,0.97349 z m -80.69342,-48.60426 c 6.09121,-0.41803 16.84188,-3.2881 22.40771,-5.98212 6.18809,-2.99521 10.59594,-7.24714 13.44579,-12.97018 1.14534,-2.30007 2.08245,-4.63147 2.08245,-5.1809 0,-1.48106 -10.52345,-11.2166 -18.95412,-17.53499 -12.01599,-9.00543 -24.81347,-17.00455 -42.10707,-26.31922 -5.453,-2.9371 -9.03428,-5.18645 -8.73462,-5.48611 0.59216,-0.59216 9.10866,2.26884 18.08548,6.07555 20.3558,8.63209 39.93073,19.70131 53.33417,30.15936 6.02339,4.69976 6.21327,4.72564 10.60733,1.44573 5.55142,-4.14382 8.12072,-9.1501 8.14305,-15.86678 0.0246,-7.39927 -4.25881,-19.05251 -10.11928,-27.52998 -3.10735,-4.49494 -6.87141,-8.40626 -7.22137,-7.5039 -0.79553,2.05127 -1.77242,3.41222 -2.55787,3.56348 -0.56721,0.10924 -2.55447,-1.74528 -5.25977,-4.90845 -2.39147,-2.79621 -4.96926,-5.491 -5.72843,-5.98843 -1.35594,-0.88844 -1.38031,-0.87474 -1.38031,0.77604 0,0.95728 -0.58485,2.36037 -1.35903,3.2604 l -1.35902,1.57996 -4.98976,-4.79037 -4.98976,-4.79037 -0.45846,2.20658 c -0.92626,4.45813 -2.09522,4.67885 -6.36423,1.20169 -3.44095,-2.80269 -8.13542,-5.70213 -8.55422,-5.28333 -0.15038,0.15038 -0.0281,0.91853 0.27162,1.707 0.65505,1.72291 0.24597,3.62518 -0.87183,4.05412 -0.44725,0.17163 -2.5499,-0.57302 -4.67254,-1.65478 -4.43079,-2.25806 -8.21288,-3.67583 -9.80572,-3.67583 -1.0745,0 -1.07269,0.0379 0.0712,1.49218 1.34917,1.71519 1.54471,4.06426 0.37566,4.51286 -0.43896,0.16845 -2.9105,-0.36104 -5.49231,-1.17663 -2.58181,-0.81559 -5.85422,-1.63667 -7.27202,-1.82462 -2.53412,-0.33592 -2.56102,-0.32272 -1.58675,0.77872 1.25992,1.42437 1.31111,4.46836 0.0831,4.93961 -0.49941,0.19163 -2.60189,-0.18146 -4.67218,-0.8291 -4.94086,-1.54562 -14.24117,-2.196 -14.24117,-0.9959 0,0.45869 0.63712,1.43252 1.41581,2.16406 2.99413,2.81285 1.46229,3.39795 -8.89601,3.39795 -3.7248,0 -6.6874,0.19113 -6.5835,0.42474 0.1038,0.23361 1.2936,2.6145 2.644,5.29087 1.3504,2.67637 2.4972,5.73452 2.5484,6.79589 l 0.093,1.92977 -3.3979,0.079 c -2.5302,0.0588 -3.3604,0.27574 -3.2511,0.84948 0.081,0.42379 2.4608,2.97969 5.2889,5.6798 6.2936,6.0087 6.4168,6.84642 1.0719,7.28554 l -3.676,0.30201 5.8764,5.83571 c 6.52928,6.48396 6.65662,7.04661 1.7831,7.87858 l -2.4726,0.4221 2.7866,2.31417 c 1.5327,1.2728 4.37737,3.39265 6.32156,4.71077 1.9442,1.31813 3.69317,2.65269 3.88661,2.96568 0.54449,0.88101 -0.72115,1.82689 -3.33807,2.49473 l -2.38446,0.60853 3.68111,2.41242 c 2.02461,1.32684 5.66331,3.34662 8.086,4.4884 3.54067,1.66866 4.374,2.29818 4.24743,3.20861 -0.0968,0.696 -0.83287,1.35097 -1.90944,1.69898 -0.96359,0.31147 -1.85555,0.82117 -1.98214,1.13264 -0.12658,0.31148 3.33769,1.74714 7.69839,3.19036 8.84948,2.92884 9.6325,3.65492 6.15449,5.707 l -2.13838,1.26168 2.51364,0.72777 c 1.38251,0.40027 5.38739,1.01911 8.89974,1.3752 3.51235,0.35609 6.81519,0.9612 7.33965,1.34469 0.89297,0.65296 0.89175,0.79156 -0.0191,2.18173 -0.53498,0.81645 -1.22165,1.48446 -1.52595,1.48446 -0.3043,0 -0.55327,0.23712 -0.55327,0.52694 0,0.62624 1.98413,1.03496 3.96427,0.81662 0.7787,-0.0859 3.33066,-0.28752 5.67102,-0.44814 z m 144.30385,0.23723 1.50528,0 -1.5516,-1.43873 c -1.76467,-1.63629 -2.02584,-3.44169 -0.56054,-3.87478 0.54509,-0.16111 2.90242,-0.45067 5.2385,-0.64347 4.08642,-0.33725 9.30625,-1.14685 11.54902,-1.79125 0.95179,-0.27347 0.8724,-0.46425 -0.70791,-1.70102 -3.05124,-2.38796 -2.4629,-3.16782 3.74174,-4.95974 3.03692,-0.87707 6.79589,-2.16798 8.35328,-2.86868 2.3557,-1.05987 2.64126,-1.33834 1.69898,-1.65675 -2.14028,-0.72323 -3.87377,-1.73734 -4.09055,-2.39303 -0.12003,-0.36309 2.56122,-2.10014 5.99797,-3.88578 3.41828,-1.77605 7.04648,-3.92328 8.06267,-4.77163 l 1.8476,-1.54244 -2.65248,-0.66791 c -3.92327,-0.98789 -3.53826,-2.11048 2.01969,-5.8888 2.5697,-1.74689 5.39045,-3.92749 6.26834,-4.84577 l 1.59617,-1.6696 -2.62022,-0.39293 c -4.17786,-0.6265 -3.92436,-1.4961 2.17774,-7.47069 3.00402,-2.94123 5.46185,-5.59228 5.46185,-5.89121 0,-0.29893 -1.37045,-0.54351 -3.04545,-0.54351 -3.197,0 -4.60564,-0.85353 -4.00253,-2.42523 0.18358,-0.47839 1.82324,-2.04 3.64369,-3.47022 2.98285,-2.34347 6.80223,-6.47214 6.80223,-7.35308 0,-0.18879 -1.53707,-0.34325 -3.41571,-0.34325 -2.3329,0 -3.50807,-0.24063 -3.707,-0.75905 -0.40827,-1.06392 1.65455,-6.33645 4.00841,-10.24542 1.08991,-1.80997 1.98165,-3.36861 1.98165,-3.46363 0,-0.095 -3.68324,-0.25528 -8.185,-0.35613 -5.07963,-0.11379 -8.42658,-0.42556 -8.82176,-0.82175 -0.47176,-0.47294 -0.18851,-1.14892 1.09305,-2.60854 0.95141,-1.08358 1.56573,-2.13425 1.36517,-2.33481 -1.08032,-1.08033 -9.87521,-0.11786 -15.62873,1.71032 -2.14069,0.68021 -2.88483,0.71664 -3.53952,0.17329 -1.08407,-0.89969 -1.05153,-2.51481 0.0856,-4.25033 0.88511,-1.35086 0.87046,-1.39589 -0.45383,-1.39589 -0.75265,0 -3.52156,0.65925 -6.15312,1.46501 -7.18103,2.19873 -7.72121,2.25405 -8.17104,0.83676 -0.24586,-0.77464 0.0321,-1.91267 0.77443,-3.17085 0.82951,-1.40591 0.94756,-1.96254 0.4162,-1.96254 -1.41645,0 -7.24324,2.24065 -10.54015,4.05313 -2.80119,1.53996 -3.45402,1.70757 -4.20935,1.0807 -1.02312,-0.84911 -1.16682,-2.9995 -0.30773,-4.60474 0.32244,-0.60248 0.43971,-1.09542 0.26061,-1.09542 -0.87927,0 -5.11708,2.54227 -8.47687,5.08529 -2.06605,1.56379 -4.11626,2.84325 -4.55602,2.84325 -1.0761,0 -1.97207,-1.79872 -1.97207,-3.95905 l 0,-1.76822 -1.77183,1.02308 c -0.9745,0.5627 -3.2044,2.61573 -4.95533,4.56229 -1.75094,1.94657 -3.37465,3.53936 -3.60826,3.53953 -1.03733,5.7e-4 -2.69004,-2.41406 -2.69004,-3.93053 0,-0.91605 -0.21956,-1.80125 -0.48792,-1.9671 -0.48962,-0.3026 -6.22719,5.4173 -9.52033,9.49099 -2.11917,2.62145 -3.62569,2.60277 -4.40855,-0.0547 -0.29802,-1.01164 -0.85348,-1.83936 -1.23435,-1.83936 -1.19627,0 -8.04941,9.11852 -10.6776,14.20718 -1.38423,2.68013 -3.34049,7.26963 -4.34725,10.1989 -1.52118,4.42604 -1.83379,6.18715 -1.85014,10.42286 -0.0167,4.3198 0.20355,5.57577 1.44448,8.23754 0.80529,1.72735 2.27369,4.06263 3.2631,5.18951 1.96853,2.24202 6.77646,5.54988 8.0468,5.53619 0.43995,-0.005 2.97231,-1.72495 5.62748,-3.82269 13.68943,-10.81546 33.58676,-21.98752 55.15553,-30.96904 8.81765,-3.67177 16.1479,-6.20337 16.61356,-5.7377 0.60862,0.60861 -0.83738,1.65689 -5.55115,4.02429 -21.85636,10.97692 -47.24895,28.03413 -59.48121,39.95589 -5.70503,5.56022 -5.55465,5.02329 -2.96133,10.57307 1.79289,3.83688 6.36404,8.82665 10.59832,11.56893 3.3404,2.16336 12.39687,5.41742 18.57924,6.67566 3.86369,0.78635 12.3146,1.64362 13.37654,1.35695 0.41482,-0.11198 1.4316,-0.20361 2.25951,-0.20361 z"
             id="path3971"
             inkscape:connector-curvature="0" />
          <path
             style="fill:#4f6620"
             d="m -892.53343,-31.267521 c -13.01029,-2.481055 -25.68835,-9.092607 -34.83031,-18.163864 -2.94714,-2.924351 -4.48902,-3.929197 -8.68061,-5.657211 -10.93227,-4.506899 -22.00044,-10.7538 -32.56364,-18.379005 -2.02461,-1.461496 -4.82792,-3.144051 -6.22957,-3.73902 -10.273,-4.360645 -21.31287,-13.751796 -27.85014,-23.690969 -5.4366,-8.2656 -8.4863,-15.66188 -10.599,-25.70492 -0.573,-2.72391 -2.1089,-7.71184 -3.4132,-11.0843 -1.3043,-3.37247 -3.2775,-9.4519 -4.3849,-13.50987 -1.8529,-6.78952 -2.2758,-7.72349 -5.3019,-11.70746 -18.2032,-23.96537 -16.1568,-58.25488 4.7649,-79.83839 2.2137,-2.28371 5.245,-5.08267 6.7363,-6.21992 1.5132,-1.15401 3.4531,-3.38202 4.3899,-5.042 1.4602,-2.5873 1.6789,-3.54644 1.6809,-7.37187 0.01,-12.20259 4.2908,-25.94357 11.39539,-36.54679 3.6798,-5.49187 13.02117,-14.43284 18.80647,-18.00034 2.75151,-1.69671 5.00006,-3.33137 4.99679,-3.63256 -0.003,-0.3012 -1.73095,-1.12951 -3.83926,-1.8407 -4.17428,-1.40809 -6.52907,-3.27157 -8.17362,-6.46824 -0.82836,-1.61016 -1.89282,-2.45033 -4.86892,-3.84302 -4.76623,-2.23039 -7.98591,-5.48415 -8.47919,-8.56893 -0.28242,-1.76618 -0.86746,-2.64407 -2.69346,-4.0418 -6.1605,-4.71543 -7.8721,-6.96047 -8.5526,-11.2176 -0.2565,-1.60481 -0.9944,-3.17755 -1.9928,-4.24743 -3.5413,-3.79487 -4.5297,-5.89046 -4.5297,-9.60426 0,-3.20524 -0.1925,-3.75787 -2.2877,-6.56604 -1.2582,-1.68643 -2.4263,-3.70751 -2.5957,-4.49129 -0.1695,-0.78378 -0.3885,-1.69733 -0.4867,-2.03012 -0.098,-0.33279 0.022,-1.6998 0.2662,-3.0378 0.3823,-2.09022 0.2147,-2.87028 -1.1899,-5.54043 -2.1137,-4.01838 -2.1807,-7.46032 -0.2169,-11.15364 1.1767,-2.21311 1.306,-2.87507 0.7609,-3.89371 -1.1494,-2.14769 -1.5086,-4.86109 -0.9642,-7.28409 1.1654,-5.18662 4.8361,-7.8448 10.833,-7.8448 3.2988,0 3.7359,-0.14726 5.261,-1.77259 2.5876,-2.75749 5.9941,-4.00572 11.83137,-4.33525 4.15464,-0.23454 5.44383,-0.53107 6.82173,-1.56906 2.25414,-1.6981 6.23605,-2.70881 9.1165,-2.314 1.90412,0.26099 2.68229,0.0615 4.23839,-1.08656 3.17183,-2.3401 5.6609,-2.72275 10.85929,-1.66943 4.45885,0.90348 4.60918,0.8972 7.41487,-0.30977 3.51468,-1.51198 6.50945,-1.2779 11.53495,0.9016 3.02193,1.31057 3.76149,1.43467 5.31742,0.89228 2.97457,-1.03695 5.68578,-0.71706 9.25279,1.09171 2.98525,1.51377 3.73035,1.6663 6.57033,1.34499 4.09035,-0.46277 7.07744,0.78164 11.50844,4.79437 2.77544,2.51346 3.51562,2.89906 5.5649,2.89906 3.56901,0 6.84534,1.92042 10.95105,6.41892 6.32689,6.93221 11.79356,16.10627 14.65869,24.59991 0.70689,2.09556 1.51649,3.77172 1.7991,3.7248 0.28262,-0.0469 1.16489,-1.83084 1.96059,-3.96427 3.68693,-9.8853 8.5899,-17.92759 14.91432,-24.46385 4.63241,-4.78757 7.21965,-6.31551 10.69399,-6.31551 2.00347,0 2.77197,-0.32035 4.10407,-1.71076 0.90146,-0.94091 3.01891,-2.66112 4.70545,-3.82268 2.90461,-2.00048 3.30936,-2.11399 7.66971,-2.15074 3.78375,-0.0319 5.15781,-0.30817 7.71806,-1.55186 3.28577,-1.59611 6.26844,-1.91194 8.83628,-0.93565 1.25875,0.47858 2.22682,0.31664 5.184,-0.8672 5.39592,-2.16014 7.86206,-2.34957 11.30519,-0.86837 2.83699,1.22044 2.96944,1.22603 7.44047,0.31411 5.31117,-1.08327 7.51429,-0.80307 10.80267,1.37392 1.93023,1.27786 2.83098,1.5258 4.75527,1.3089 3.02178,-0.34059 6.6774,0.63863 8.70754,2.33247 1.31039,1.09332 2.46125,1.37695 6.68006,1.64626 6.74527,0.43061 8.97598,1.16529 11.64642,3.83572 2.09315,2.09316 2.43269,2.22853 5.5896,2.22853 5.47108,0 8.30384,1.63652 10.29298,5.9464 1.3041,2.82562 1.33864,4.93034 0.13597,8.2861 -0.9182,2.56201 -0.90986,2.67162 0.35946,4.72542 1.8779,3.03849 1.79913,7.06569 -0.21481,10.98336 -1.3271,2.58157 -1.50627,3.45491 -1.18621,5.78202 0.52956,3.8504 -0.0197,5.6938 -2.83666,9.52039 -2.18165,2.96355 -2.42398,3.59317 -2.15496,5.59888 0.4326,3.22521 -0.65452,5.92785 -3.75419,9.33316 -2.20487,2.42228 -2.7567,3.45656 -2.99484,5.6132 -0.40329,3.65221 -2.19893,6.27814 -6.54056,9.56484 -3.10716,2.35218 -3.86072,3.26637 -4.6749,5.67137 -1.26784,3.74511 -3.63917,6.11173 -8.46132,8.44454 -2.87585,1.39124 -4.1057,2.33406 -4.59939,3.52593 -1.68206,4.06084 -4.60039,6.04064 -11.47392,7.7839 -2.34495,0.59472 -4.10759,1.3532 -4.18546,1.80102 -0.0742,0.42664 2.16761,2.29776 4.99798,4.17159 5.63769,3.7324 13.10039,11.05131 16.7471,16.42441 7.00813,10.32587 11.50459,24.48928 11.51607,36.27445 0.004,4.35018 1.8643,7.49484 6.59229,11.14503 19.61409,15.14285 28.51078,40.40833 22.52903,63.97959 -2.04247,8.04843 -5.89788,15.90516 -11.34756,23.12462 -1.73157,2.2939 -2.59282,4.18851 -3.33639,7.33952 -0.55127,2.33608 -1.71503,6.67094 -2.58615,9.63301 -0.99774,3.39261 -1.80943,7.9836 -2.19345,12.40616 -0.70543,8.12418 -1.5553,12.15378 -3.94342,18.69737 -6.61719,18.131541 -21.54974,33.094563 -39.60201,39.682822 -2.56401,0.935749 -6.3452,2.932269 -8.59857,4.540148 -6.61985,4.723586 -16.65318,10.474767 -24.22385,13.88529 -5.85736,2.638692 -7.55228,3.686845 -9.54392,5.902027 -7.88548,8.770556 -20.20282,15.997935 -32.98177,19.352539 -5.68151,1.491455 -21.09485,1.960434 -27.05791,0.823283 z m 24.38379,-13.590201 c 9.18571,-2.549111 16.57651,-6.616315 23.06706,-12.693948 5.82523,-5.454643 8.5021,-9.139301 8.83907,-12.166808 0.22858,-2.053622 0.005,-2.69977 -1.6676,-4.806807 -2.26309,-2.851907 -3.84419,-3.864784 -9.22034,-5.906677 -10.03331,-3.810728 -15.9511,-4.66061 -32.28048,-4.635987 -11.90746,0.01795 -13.63966,0.149442 -20.18139,1.531924 -8.7234,1.843533 -14.45151,3.987772 -19.11745,7.156351 -7.41791,5.037409 -7.60293,9.363067 -0.71341,16.679058 2.82429,2.999117 10.40804,8.611209 14.22212,10.524581 4.11011,2.061884 9.05454,3.8192 13.61416,4.838651 4.87827,1.090695 18.74199,0.782915 23.43826,-0.520338 z m -75.89003,-40.02603 c 2.7583,-0.765868 7.28613,-4.941479 8.84087,-8.153137 0.83921,-1.733581 1.26782,-4.030094 1.49585,-8.014851 0.45583,-7.96548 -1.37697,-15.39967 -6.06219,-24.58943 -3.96172,-7.77067 -6.81873,-11.84376 -13.18595,-18.79853 -12.07119,-13.18511 -26.71357,-19.76237 -37.3936,-16.79696 -3.23454,0.8981 -7.43334,5.08509 -8.82234,8.79753 -1.72947,4.62235 -2.42457,12.31496 -1.72697,19.11243 2.04559,19.93392 14.11823,36.602655 32.33112,44.639713 8.5299,3.764102 18.88197,5.369581 24.52321,3.803235 z m 143.1784,-1.059077 c 9.68143,-2.455848 18.91736,-7.734652 25.84201,-14.770021 6.26579,-6.36597 10.30389,-13.15838 13.45393,-22.63052 1.52077,-4.57298 1.60202,-5.3378 1.62433,-15.29075 0.0211,-9.40037 -0.11408,-10.94257 -1.31517,-15.00759 -1.60118,-5.41911 -2.36528,-6.98696 -4.70241,-9.6488 -3.52593,-4.01581 -8.94146,-5.36395 -15.84973,-3.94562 -18.54072,3.80658 -41.10493,29.66306 -46.42112,53.19426 -1.6952,7.50352 -1.34605,16.983614 0.78602,21.341394 3.20036,6.541311 7.49724,8.661895 16.55671,8.171034 3.11479,-0.16877 7.62623,-0.804792 10.02543,-1.413387 z m -67.18945,-15.297121 c 6.99799,-1.74985 15.35784,-6.22157 20.35404,-10.88747 19.16455,-17.89758 18.32468,-45.66957 -1.86633,-61.71463 -5.22006,-4.14818 -9.15636,-6.16727 -16.03161,-8.22323 -4.77799,-1.42881 -6.16244,-1.59097 -13.53415,-1.58526 -9.08613,0.007 -12.40313,0.65272 -19.82417,3.85898 -9.03954,3.90553 -15.93422,9.86686 -20.54592,17.76457 -3.58891,6.14614 -4.78466,9.82642 -5.51023,16.95939 -0.92321,9.07595 1.1896,17.66363 6.21487,25.26086 7.35719,11.12265 18.42424,17.65578 33.71905,19.905101 3.35163,0.492906 12.61252,-0.235101 17.02445,-1.338311 z m -137.48078,-65.29436 c 6.18419,-5.76353 12.22516,-24.55127 13.66228,-42.49033 0.59186,-7.38784 -0.0918,-21.38818 -1.25639,-25.72933 -0.99967,-3.72636 -3.53111,-7.42877 -5.39995,-7.89782 -2.88984,-0.72529 -11.13334,5.21922 -16.37814,11.81046 -12.8812,16.18801 -14.4465,37.54368 -4.0797,55.66239 1.3505,2.36039 3.7877,5.72309 5.4159,7.47265 2.7316,2.9351 3.1042,3.1523 4.8193,2.80927 1.0224,-0.20447 2.4699,-0.94125 3.2167,-1.63729 z m 254.1154,-1.97341 c 11.28013,-11.69561 15.62183,-29.49454 11.30077,-46.32799 -1.20468,-4.69302 -5.41582,-12.89105 -8.78161,-17.09557 -3.32131,-4.14895 -9.82888,-9.69682 -13.88511,-11.83742 -3.90877,-2.06278 -5.60122,-1.61797 -7.14792,1.8786 -3.75117,8.48014 -3.59765,25.33218 0.41977,46.07858 3.10216,16.01992 9.82507,29.99384 14.43016,29.99384 0.5882,0 2.23697,-1.21052 3.66394,-2.69004 z m -177.61729,-8.6494 c 9.98862,-2.39454 20.01827,-9.00289 27.21434,-17.931 6.86171,-8.51327 10.54123,-16.90136 11.94672,-27.23456 1.98261,-14.57618 -1.77626,-26.87421 -11.03369,-36.09933 -7.3862,-7.36043 -15.08528,-10.44213 -26.12813,-10.45831 -8.90714,-0.013 -17.9579,2.81619 -25.57186,7.9937 -7.45731,5.07097 -15.32293,14.49824 -19.20609,23.01928 -3.72687,8.17809 -4.44309,11.77277 -4.42579,22.21312 0.0145,8.74317 0.11709,9.63584 1.59473,13.87495 3.39952,9.75259 10.12475,17.58868 18.74904,21.84598 8.08878,3.99294 17.65904,4.98206 26.86073,2.77617 z m 116.46413,-1.60706 c 12.97855,-3.37213 22.42327,-12.83407 25.73469,-25.78162 4.21327,-16.47373 -0.4388,-34.43489 -12.59409,-48.62447 -8.85456,-10.33644 -23.17723,-17.4174 -35.23023,-17.4174 -6.59146,0 -10.66101,0.88471 -16.11658,3.50369 -9.95101,4.77707 -17.10819,14.68679 -19.30422,26.72834 -0.94297,5.17068 -0.39859,16.87264 1.03058,22.15296 1.14912,4.24563 6.61746,15.70702 9.05165,18.97187 2.73543,3.66887 9.44356,10.3042 12.58285,12.44631 11.26725,7.68824 24.44751,10.72193 34.84535,8.02032 z m 42.96364,-77.99486 c 1.22788,-3.1998 -0.5334,-16.19843 -3.1015,-22.88981 -6.51028,-16.96299 -21.84666,-29.45719 -39.59539,-32.25747 -8.00367,-1.26277 -20.44636,-0.23909 -21.72116,1.78703 -1.47398,2.3427 3.84137,9.18383 17.31706,22.288 19.71391,19.17039 45.21309,35.99205 47.10099,31.07225 z m -219.07268,-1.56636 c 5.36962,-2.12234 15.36042,-8.59724 24.71653,-16.01844 20.88755,-16.56787 35.56002,-32.76113 32.75108,-36.14571 -1.9188,-2.312 -19.46858,-2.59511 -26.63714,-0.42969 -16.13445,4.87375 -27.81422,15.13259 -33.91608,29.78992 -2.77992,6.67766 -4.80351,18.69975 -3.81233,22.64891 0.48155,1.91864 2.33072,1.96019 6.89794,0.15501 z m 121.6078,-15.90313 c 2.24508,-0.44508 5.20408,-0.98376 6.57554,-1.19707 1.37146,-0.21331 5.5266,-1.90608 9.23366,-3.76172 6.17586,-3.09145 6.95026,-3.65939 9.2508,-6.78445 3.32978,-4.52319 3.96596,-6.73411 3.11592,-10.82875 -1.79723,-8.65724 -15.57428,-19.47858 -29.47403,-23.15072 -3.87026,-1.02247 -6.31225,-1.26923 -12.45913,-1.25894 -8.48783,0.0142 -14.03728,1.13497 -20.79788,4.20038 -7.95557,3.60722 -16.78337,10.84368 -18.89144,15.48597 -2.4504,5.39614 -0.56628,12.35421 4.57722,16.90362 4.95849,4.38577 17.52292,9.51845 26.05091,10.64203 5.63162,0.74198 18.52656,0.6005 22.81843,-0.25035 z m -80.57572,-49.26452 c 6.09121,-0.41803 16.84188,-3.2881 22.40771,-5.98212 6.18809,-2.99521 10.59594,-7.24714 13.44579,-12.97018 1.14534,-2.30007 2.08245,-4.63147 2.08245,-5.1809 0,-1.48106 -10.52345,-11.2166 -18.95412,-17.53499 -12.01599,-9.00543 -24.81347,-17.00455 -42.10707,-26.31922 -5.453,-2.9371 -9.03428,-5.18645 -8.73462,-5.48611 0.59216,-0.59216 9.10866,2.26884 18.08548,6.07555 20.3558,8.63209 39.93073,19.70131 53.33417,30.15936 6.02339,4.69976 6.21327,4.72564 10.60733,1.44573 5.55142,-4.14382 8.12072,-9.1501 8.14305,-15.86678 0.0246,-7.39927 -4.25881,-19.05251 -10.11928,-27.52998 -3.10735,-4.49494 -6.87141,-8.40626 -7.22137,-7.5039 -0.79553,2.05127 -1.77242,3.41222 -2.55787,3.56348 -0.56721,0.10924 -2.55447,-1.74528 -5.25977,-4.90845 -2.39147,-2.79621 -4.96926,-5.491 -5.72843,-5.98843 -1.35594,-0.88844 -1.38031,-0.87474 -1.38031,0.77604 0,0.95728 -0.58485,2.36037 -1.35903,3.2604 l -1.35902,1.57996 -4.98976,-4.79037 -4.98976,-4.79037 -0.45846,2.20658 c -0.92626,4.45813 -2.09522,4.67885 -6.36423,1.20169 -3.44095,-2.80269 -8.13542,-5.70213 -8.55422,-5.28333 -0.15038,0.15038 -0.0281,0.91853 0.27162,1.707 0.65505,1.72291 0.24597,3.62518 -0.87183,4.05412 -0.44725,0.17163 -2.5499,-0.57302 -4.67254,-1.65478 -4.43079,-2.25806 -8.21288,-3.67583 -9.80572,-3.67583 -1.0745,0 -1.07269,0.0379 0.0712,1.49218 1.34917,1.71519 1.54471,4.06426 0.37566,4.51286 -0.43896,0.16845 -2.9105,-0.36104 -5.49231,-1.17663 -2.58181,-0.81559 -5.85422,-1.63667 -7.27202,-1.82462 -2.53412,-0.33592 -2.56102,-0.32272 -1.58675,0.77872 1.25992,1.42437 1.31111,4.46836 0.0831,4.93961 -0.49941,0.19163 -2.60189,-0.18146 -4.67218,-0.8291 -4.94086,-1.54562 -14.24117,-2.196 -14.24117,-0.9959 0,0.45869 0.63712,1.43252 1.41581,2.16406 2.99413,2.81285 1.46229,3.39795 -8.89601,3.39795 -3.7248,0 -6.6874,0.19113 -6.5835,0.42474 0.1038,0.23361 1.2936,2.6145 2.644,5.29087 1.3504,2.67637 2.4972,5.73452 2.5484,6.79589 l 0.093,1.92977 -3.3979,0.079 c -2.5302,0.0588 -3.3604,0.27574 -3.2511,0.84948 0.081,0.42379 2.4608,2.97969 5.2889,5.6798 6.2936,6.0087 6.4168,6.84642 1.0719,7.28554 l -3.676,0.30201 5.8764,5.83571 c 6.52928,6.48396 6.65662,7.04661 1.7831,7.87858 l -2.4726,0.4221 2.7866,2.31417 c 1.5327,1.2728 4.37737,3.39265 6.32156,4.71077 1.9442,1.31813 3.69317,2.65269 3.88661,2.96568 0.54449,0.88101 -0.72115,1.82689 -3.33807,2.49473 l -2.38446,0.60853 3.68111,2.41242 c 2.02461,1.32684 5.66331,3.34662 8.086,4.4884 3.54067,1.66866 4.374,2.29818 4.24743,3.20861 -0.0968,0.696 -0.83287,1.35097 -1.90944,1.69898 -0.96359,0.31147 -1.85555,0.82117 -1.98214,1.13264 -0.12658,0.31148 3.33769,1.74714 7.69839,3.19036 8.84948,2.92884 9.6325,3.65492 6.15449,5.707 l -2.13838,1.26168 2.51364,0.72777 c 1.38251,0.40027 5.38739,1.01911 8.89974,1.3752 3.51235,0.35609 6.81519,0.9612 7.33965,1.34469 0.89297,0.65296 0.89175,0.79156 -0.0191,2.18173 -0.53498,0.81645 -1.22165,1.48446 -1.52595,1.48446 -0.3043,0 -0.55327,0.23712 -0.55327,0.52694 0,0.62624 1.98413,1.03496 3.96427,0.81662 0.7787,-0.0859 3.33066,-0.28752 5.67102,-0.44814 z m 144.30385,0.23723 1.50528,0 -1.5516,-1.43873 c -1.76467,-1.63629 -2.02584,-3.44169 -0.56054,-3.87478 0.54509,-0.16111 2.90242,-0.45067 5.2385,-0.64347 4.08642,-0.33725 9.30625,-1.14685 11.54902,-1.79125 0.95179,-0.27347 0.8724,-0.46425 -0.70791,-1.70102 -3.05124,-2.38796 -2.4629,-3.16782 3.74174,-4.95974 3.03692,-0.87707 6.79589,-2.16798 8.35328,-2.86868 2.3557,-1.05987 2.64126,-1.33834 1.69898,-1.65675 -2.14028,-0.72323 -3.87377,-1.73734 -4.09055,-2.39303 -0.12003,-0.36309 2.56122,-2.10014 5.99797,-3.88578 3.41828,-1.77605 7.04648,-3.92328 8.06267,-4.77163 l 1.8476,-1.54244 -2.65248,-0.66791 c -3.92327,-0.98789 -3.53826,-2.11048 2.01969,-5.8888 2.5697,-1.74689 5.39045,-3.92749 6.26834,-4.84577 l 1.59617,-1.6696 -2.62022,-0.39293 c -4.17786,-0.6265 -3.92436,-1.4961 2.17774,-7.47069 3.00402,-2.94123 5.46185,-5.59228 5.46185,-5.89121 0,-0.29893 -1.37045,-0.54351 -3.04545,-0.54351 -3.197,0 -4.60564,-0.85353 -4.00253,-2.42523 0.18358,-0.47839 1.82324,-2.04 3.64369,-3.47022 2.98285,-2.34347 6.80223,-6.47214 6.80223,-7.35308 0,-0.18879 -1.53707,-0.34325 -3.41571,-0.34325 -2.3329,0 -3.50807,-0.24063 -3.707,-0.75905 -0.40827,-1.06392 1.65455,-6.33645 4.00841,-10.24542 1.08991,-1.80997 1.98165,-3.36861 1.98165,-3.46363 0,-0.095 -3.68324,-0.25528 -8.185,-0.35613 -5.07963,-0.11379 -8.42658,-0.42556 -8.82176,-0.82175 -0.47176,-0.47294 -0.18851,-1.14892 1.09305,-2.60854 0.95141,-1.08358 1.56573,-2.13425 1.36517,-2.33481 -1.08032,-1.08033 -9.87521,-0.11786 -15.62873,1.71032 -2.14069,0.68021 -2.88483,0.71664 -3.53952,0.17329 -1.08407,-0.89969 -1.05153,-2.51481 0.0856,-4.25033 0.88511,-1.35086 0.87046,-1.39589 -0.45383,-1.39589 -0.75265,0 -3.52156,0.65925 -6.15312,1.46501 -7.18103,2.19873 -7.72121,2.25405 -8.17104,0.83676 -0.24586,-0.77464 0.0321,-1.91267 0.77443,-3.17085 0.82951,-1.40591 0.94756,-1.96254 0.4162,-1.96254 -1.41645,0 -7.24324,2.24065 -10.54015,4.05313 -2.80119,1.53996 -3.45402,1.70757 -4.20935,1.0807 -1.02312,-0.84911 -1.16682,-2.9995 -0.30773,-4.60474 0.32244,-0.60248 0.43971,-1.09542 0.26061,-1.09542 -0.87927,0 -5.11708,2.54227 -8.47687,5.08529 -2.06605,1.56379 -4.11626,2.84325 -4.55602,2.84325 -1.0761,0 -1.97207,-1.79872 -1.97207,-3.95905 l 0,-1.76822 -1.77183,1.02308 c -0.9745,0.5627 -3.2044,2.61573 -4.95533,4.56229 -1.75094,1.94657 -3.37465,3.53936 -3.60826,3.53953 -1.03733,5.7e-4 -2.69004,-2.41406 -2.69004,-3.93053 0,-0.91605 -0.21956,-1.80125 -0.48792,-1.9671 -0.48962,-0.3026 -6.22719,5.4173 -9.52033,9.49099 -2.11917,2.62145 -3.62569,2.60277 -4.40855,-0.0547 -0.29802,-1.01164 -0.85348,-1.83936 -1.23435,-1.83936 -1.19627,0 -8.04941,9.11852 -10.6776,14.20718 -1.38423,2.68013 -3.34049,7.26963 -4.34725,10.1989 -1.52118,4.42604 -1.83379,6.18715 -1.85014,10.42286 -0.0167,4.3198 0.20355,5.57577 1.44448,8.23754 0.80529,1.72735 2.27369,4.06263 3.2631,5.18951 1.96853,2.24202 6.77646,5.54988 8.0468,5.53619 0.43995,-0.005 2.97231,-1.72495 5.62748,-3.82269 13.68943,-10.81546 33.58676,-21.98752 55.15553,-30.96904 8.81765,-3.67177 16.1479,-6.20337 16.61356,-5.7377 0.60862,0.60861 -0.83738,1.65689 -5.55115,4.02429 -21.85636,10.97692 -47.24895,28.03413 -59.48121,39.95589 -5.70503,5.56022 -5.55465,5.02329 -2.96133,10.57307 1.79289,3.83688 6.36404,8.82665 10.59832,11.56893 3.3404,2.16336 12.39687,5.41742 18.57924,6.67566 3.86369,0.78635 12.3146,1.64362 13.37654,1.35695 0.41482,-0.11198 1.4316,-0.20361 2.25951,-0.20361 z"
             id="path3969"
             inkscape:connector-curvature="0" />
          <path
             style="fill:#5e0f25"
             d="m -893.49898,-31.878987 c -12.58598,-2.609186 -24.99716,-9.203488 -33.48418,-17.790804 -2.32193,-2.349362 -4.78544,-4.281971 -5.94641,-4.664909 -8.37834,-2.76356 -24.46822,-11.44125 -33.15129,-17.879354 -2.48976,-1.846041 -6.96474,-4.550268 -9.94441,-6.009385 -13.03086,-6.381103 -24.40213,-17.541128 -30.68243,-30.112341 -2.1411,-4.28577 -4.7906,-12.1695 -5.8497,-17.40574 -0.5207,-2.5745 -2.0291,-7.48421 -3.3519,-10.91047 -1.3229,-3.42626 -3.2185,-9.16029 -4.2124,-12.74229 -0.9939,-3.582 -2.0092,-7.15607 -2.2562,-7.94237 -0.2471,-0.7863 -1.7183,-3.10636 -3.2695,-5.15568 -4.1154,-5.43731 -7.2158,-11.37304 -9.4441,-18.0812 -2.6291,-7.91451 -3.3989,-13.73954 -3.0194,-22.84537 0.3319,-7.9622 1.6044,-13.4749 4.9845,-21.59433 3.3551,-8.05941 10.968,-17.78263 18.4312,-23.54041 4.5139,-3.48248 6.4437,-7.48814 6.4468,-13.38143 0.01,-12.91906 4.7498,-27.21621 12.395,-37.36216 5.63889,-7.48338 13.85595,-14.65841 20.87426,-18.22714 1.32378,-0.67313 2.40688,-1.57614 2.40688,-2.00669 0,-0.47694 -1.5483,-1.2531 -3.96253,-1.9864 -4.42548,-1.3442 -7.55174,-3.70037 -8.76611,-6.60679 -0.60741,-1.45374 -1.65863,-2.31382 -4.6999,-3.84538 -6.27543,-3.16026 -7.84561,-4.8468 -8.86258,-9.51941 -0.21135,-0.97105 -1.51622,-2.44242 -3.58552,-4.04292 -1.7893,-1.38395 -3.8146,-3.12147 -4.5005,-3.86115 -1.5897,-1.71422 -3.0003,-5.07651 -3.0003,-7.15169 0,-1.06407 -0.5941,-2.17606 -1.7495,-3.27456 -3.1429,-2.98813 -4.659,-6.22229 -4.7269,-10.08331 -0.054,-3.09249 -0.2906,-3.76996 -2.1567,-6.18572 -2.5125,-3.25252 -3.3834,-6.13726 -2.9054,-9.62445 0.2899,-2.115 0.083,-3.13228 -1.1325,-5.57166 -1.985,-3.98353 -2.0028,-7.72874 -0.052,-11.05692 1.4016,-2.39177 1.4122,-2.49077 0.4597,-4.29719 -1.4213,-2.69559 -1.2946,-7.08281 0.278,-9.62738 1.9925,-3.22391 4.3622,-4.3976 8.879,-4.3976 3.7528,0 3.898,-0.0554 6.4909,-2.48081 3.0001,-2.80632 6.0675,-3.74875 12.20097,-3.74875 3.18883,0 3.95785,-0.22639 6.2447,-1.83831 2.32859,-1.64134 3.10371,-1.86082 7.23419,-2.04839 3.82737,-0.17381 4.89605,-0.43719 6.18924,-1.52534 2.2283,-1.87499 5.79889,-2.25426 10.7831,-1.14538 4.02406,0.89527 4.2553,0.88802 6.67432,-0.20942 3.46113,-1.57022 6.14379,-1.44358 11.05192,0.52174 3.34019,1.33747 4.50191,1.57024 5.65288,1.13264 2.72429,-1.03577 6.15689,-0.6296 9.64842,1.14167 2.98318,1.51339 3.70121,1.65589 6.78621,1.34678 4.27162,-0.42801 6.23035,0.40274 11.01449,4.67155 3.11984,2.78378 3.65261,3.04938 6.11684,3.04938 3.70883,0 6.92903,2.15339 11.83451,7.9139 5.17077,6.07203 8.83924,12.24202 12.05942,20.28268 1.44762,3.61466 2.88151,6.65527 3.18642,6.7569 0.30491,0.10164 1.3988,-2.05099 2.43085,-4.78363 3.87105,-10.24965 8.10431,-17.18734 14.74403,-24.16327 4.59355,-4.82616 6.60476,-6.00658 10.23399,-6.00658 2.01326,0 2.7752,-0.39865 5.53986,-2.89849 4.48442,-4.05487 7.35231,-5.26112 11.4821,-4.82947 2.89327,0.3024 3.62946,0.14933 6.47117,-1.34549 3.41463,-1.7962 7.48652,-2.24026 10.00794,-1.09143 1.0474,0.47723 1.97926,0.29775 4.69882,-0.90499 4.86852,-2.15314 8.58436,-2.42181 11.82146,-0.85475 2.55033,1.23459 2.63093,1.23799 6.88962,0.29052 5.02979,-1.11903 7.51643,-0.85079 10.51622,1.13438 1.7169,1.13618 2.88275,1.43853 5.547,1.43853 3.73489,0 5.59079,0.54738 8.54387,2.51995 1.60281,1.07063 2.96249,1.37484 7.10489,1.58963 6.01024,0.31163 9.65347,1.67437 11.53298,4.31389 1.21444,1.70553 1.41168,1.77036 5.38572,1.77036 4.49208,0 6.73176,1.01218 8.9918,4.06367 1.59799,2.15758 1.93192,6.75385 0.69067,9.50645 -0.98005,2.17335 -0.97507,2.22051 0.56649,5.37136 1.28852,2.63363 1.49338,3.62999 1.19457,5.81 -0.19836,1.44719 -0.91866,3.54211 -1.60069,4.65539 -0.99976,1.63192 -1.24612,2.9209 -1.27141,6.65224 -0.0308,4.53919 -0.0795,4.69632 -2.5345,8.17892 -2.20978,3.13469 -2.48858,3.86955 -2.37902,6.27057 0.15947,3.49499 -1.35479,6.86594 -4.39249,9.77829 -1.97642,1.89485 -2.33645,2.59063 -2.34433,4.53059 -0.0134,3.29564 -1.9805,6.30655 -6.22025,9.52092 -3.08195,2.33658 -3.84193,3.26099 -4.66915,5.67938 -1.3002,3.80114 -3.79235,6.28608 -8.65884,8.63377 -3.44709,1.66296 -4.15203,2.26838 -5.2338,4.49499 -1.47493,3.03586 -3.48444,4.39764 -8.90493,6.03459 -8.13155,2.45567 -8.21745,2.71807 -2.12372,6.48779 6.0289,3.7296 15.38035,13.21948 19.27259,19.55788 1.64492,2.6787 3.90858,7.1216 5.03036,9.8731 2.47807,6.07823 4.70714,16.60093 4.71522,22.25896 0.008,5.51965 2.06758,9.54629 6.51853,12.74346 12.94482,9.29843 22.06491,25.12916 24.12987,41.88485 1.82657,14.82135 -2.60681,31.49478 -11.51218,43.29599 -3.52672,4.67356 -3.53974,4.70155 -4.9302,10.60938 -0.65935,2.80148 -1.81537,7.00495 -2.56891,9.34104 -0.854,2.64747 -1.50887,6.3807 -1.73849,9.91067 -0.68485,10.52773 -2.90902,18.71568 -7.53513,27.73938 -7.45161,14.53515 -21.52801,26.815365 -36.73464,32.047215 -1.72398,0.593134 -6.3536,3.231616 -10.28805,5.863285 -7.38006,4.936371 -17.15616,10.307622 -24.2176,13.305793 -3.2347,1.373399 -4.98526,2.647832 -8.79423,6.402307 -8.35519,8.235657 -18.41999,14.123316 -29.37813,17.185482 -4.6845,1.309053 -6.64535,1.52348 -15.55409,1.700938 -7.32193,0.145846 -11.29067,-0.02435 -14.08705,-0.604047 z m 25.34934,-12.978735 c 9.18571,-2.549111 16.57651,-6.616315 23.06706,-12.693948 5.82523,-5.454643 8.5021,-9.139301 8.83907,-12.166808 0.22858,-2.053622 0.005,-2.69977 -1.6676,-4.806807 -2.26309,-2.851907 -3.84419,-3.864784 -9.22034,-5.906677 -10.03331,-3.810728 -15.9511,-4.66061 -32.28048,-4.635987 -11.90746,0.01795 -13.63966,0.149442 -20.18139,1.531924 -8.7234,1.843533 -14.45151,3.987772 -19.11745,7.156351 -7.41791,5.037409 -7.60293,9.363067 -0.71341,16.679058 2.82429,2.999117 10.40804,8.611209 14.22212,10.524581 4.11011,2.061884 9.05454,3.8192 13.61416,4.838651 4.87827,1.090695 18.74199,0.782915 23.43826,-0.520338 z m -75.89003,-40.02603 c 2.7583,-0.765868 7.28613,-4.941479 8.84087,-8.153137 0.83921,-1.733581 1.26782,-4.030094 1.49585,-8.014851 0.45583,-7.96548 -1.37697,-15.39967 -6.06219,-24.58943 -3.96172,-7.77067 -6.81873,-11.84376 -13.18595,-18.79853 -12.07119,-13.18511 -26.71357,-19.76237 -37.3936,-16.79696 -3.23454,0.8981 -7.43334,5.08509 -8.82234,8.79753 -1.72947,4.62235 -2.42457,12.31496 -1.72697,19.11243 2.04559,19.93392 14.11823,36.602655 32.33112,44.639713 8.5299,3.764102 18.88197,5.369581 24.52321,3.803235 z m 143.1784,-1.059077 c 9.68143,-2.455848 18.91736,-7.734652 25.84201,-14.770021 6.26579,-6.36597 10.30389,-13.15838 13.45393,-22.63052 1.52077,-4.57298 1.60202,-5.3378 1.62433,-15.29075 0.0211,-9.40037 -0.11408,-10.94257 -1.31517,-15.00759 -1.60118,-5.41911 -2.36528,-6.98696 -4.70241,-9.6488 -3.52593,-4.01581 -8.94146,-5.36395 -15.84973,-3.94562 -18.54072,3.80658 -41.10493,29.66306 -46.42112,53.19426 -1.6952,7.50352 -1.34605,16.983614 0.78602,21.341394 3.20036,6.541311 7.49724,8.661895 16.55671,8.171034 3.11479,-0.16877 7.62623,-0.804792 10.02543,-1.413387 z m -67.18945,-15.297121 c 6.99799,-1.74985 15.35784,-6.22157 20.35404,-10.88747 19.16455,-17.89758 18.32468,-45.66957 -1.86633,-61.71463 -5.22006,-4.14818 -9.15636,-6.16727 -16.03161,-8.22323 -4.77799,-1.42881 -6.16244,-1.59097 -13.53415,-1.58526 -9.08613,0.007 -12.40313,0.65272 -19.82417,3.85898 -9.03954,3.90553 -15.93422,9.86686 -20.54592,17.76457 -3.58891,6.14614 -4.78466,9.82642 -5.51023,16.95939 -0.92321,9.07595 1.1896,17.66363 6.21487,25.26086 7.35719,11.12265 18.42424,17.65578 33.71905,19.905101 3.35163,0.492906 12.61252,-0.235101 17.02445,-1.338311 z m -137.48078,-65.29436 c 6.18419,-5.76353 12.22516,-24.55127 13.66228,-42.49033 0.59186,-7.38784 -0.0918,-21.38818 -1.25639,-25.72933 -0.99967,-3.72636 -3.53111,-7.42877 -5.39995,-7.89782 -2.88984,-0.72529 -11.13334,5.21922 -16.37814,11.81046 -12.8812,16.18801 -14.4465,37.54368 -4.0797,55.66239 1.3505,2.36039 3.7877,5.72309 5.4159,7.47265 2.7316,2.9351 3.1042,3.1523 4.8193,2.80927 1.0224,-0.20447 2.4699,-0.94125 3.2167,-1.63729 z m 254.1154,-1.97341 c 11.28013,-11.69561 15.62183,-29.49454 11.30077,-46.32799 -1.20468,-4.69302 -5.41582,-12.89105 -8.78161,-17.09557 -3.32131,-4.14895 -9.82888,-9.69682 -13.88511,-11.83742 -3.90877,-2.06278 -5.60122,-1.61797 -7.14792,1.8786 -3.75117,8.48014 -3.59765,25.33218 0.41977,46.07858 3.10216,16.01992 9.82507,29.99384 14.43016,29.99384 0.5882,0 2.23697,-1.21052 3.66394,-2.69004 z m -177.61729,-8.6494 c 9.98862,-2.39454 20.01827,-9.00289 27.21434,-17.931 6.86171,-8.51327 10.54123,-16.90136 11.94672,-27.23456 1.98261,-14.57618 -1.77626,-26.87421 -11.03369,-36.09933 -7.3862,-7.36043 -15.08528,-10.44213 -26.12813,-10.45831 -8.90714,-0.013 -17.9579,2.81619 -25.57186,7.9937 -7.45731,5.07097 -15.32293,14.49824 -19.20609,23.01928 -3.72687,8.17809 -4.44309,11.77277 -4.42579,22.21312 0.0145,8.74317 0.11709,9.63584 1.59473,13.87495 3.39952,9.75259 10.12475,17.58868 18.74904,21.84598 8.08878,3.99294 17.65904,4.98206 26.86073,2.77617 z m 116.46413,-1.60706 c 12.97855,-3.37213 22.42327,-12.83407 25.73469,-25.78162 4.21327,-16.47373 -0.4388,-34.43489 -12.59409,-48.62447 -8.85456,-10.33644 -23.17723,-17.4174 -35.23023,-17.4174 -6.59146,0 -10.66101,0.88471 -16.11658,3.50369 -9.95101,4.77707 -17.10819,14.68679 -19.30422,26.72834 -0.94297,5.17068 -0.39859,16.87264 1.03058,22.15296 1.14912,4.24563 6.61746,15.70702 9.05165,18.97187 2.73543,3.66887 9.44356,10.3042 12.58285,12.44631 11.26725,7.68824 24.44751,10.72193 34.84535,8.02032 z m 42.96364,-77.99486 c 1.22788,-3.1998 -0.5334,-16.19843 -3.1015,-22.88981 -6.51028,-16.96299 -21.84666,-29.45719 -39.59539,-32.25747 -8.00367,-1.26277 -20.44636,-0.23909 -21.72116,1.78703 -1.47398,2.3427 3.84137,9.18383 17.31706,22.288 19.71391,19.17039 45.21309,35.99205 47.10099,31.07225 z m -219.07268,-1.56636 c 5.36962,-2.12234 15.36042,-8.59724 24.71653,-16.01844 20.88755,-16.56787 35.56002,-32.76113 32.75108,-36.14571 -1.9188,-2.312 -19.46858,-2.59511 -26.63714,-0.42969 -16.13445,4.87375 -27.81422,15.13259 -33.91608,29.78992 -2.77992,6.67766 -4.80351,18.69975 -3.81233,22.64891 0.48155,1.91864 2.33072,1.96019 6.89794,0.15501 z m 121.6078,-15.90313 c 2.24508,-0.44508 5.20408,-0.98376 6.57554,-1.19707 1.37146,-0.21331 5.5266,-1.90608 9.23366,-3.76172 6.17586,-3.09145 6.95026,-3.65939 9.2508,-6.78445 3.32978,-4.52319 3.96596,-6.73411 3.11592,-10.82875 -1.79723,-8.65724 -15.57428,-19.47858 -29.47403,-23.15072 -3.87026,-1.02247 -6.31225,-1.26923 -12.45913,-1.25894 -8.48783,0.0142 -14.03728,1.13497 -20.79788,4.20038 -7.95557,3.60722 -16.78337,10.84368 -18.89144,15.48597 -2.4504,5.39614 -0.56628,12.35421 4.57722,16.90362 4.95849,4.38577 17.52292,9.51845 26.05091,10.64203 5.63162,0.74198 18.52656,0.6005 22.81843,-0.25035 z m -76.8855,-48.72863 c 7.08953,-1.14988 14.49669,-3.34527 19.5213,-5.78586 5.19223,-2.52201 10.83937,-7.96895 13.39315,-12.91834 3.26263,-6.32319 3.37963,-5.90798 -3.58601,-12.72717 -10.53127,-10.30987 -26.94478,-21.82915 -47.89675,-33.61478 -5.5311,-3.11129 -9.94641,-5.76703 -9.81178,-5.90165 0.9069,-0.90691 29.71634,12.37313 41.40667,19.08687 7.31106,4.19872 18.61146,11.81163 24.02268,16.18369 2.10895,1.70396 4.22321,3.0981 4.69836,3.0981 1.42175,0 7.61708,-4.43387 9.47753,-6.78288 3.28434,-4.14683 4.23192,-7.07943 4.21292,-13.03847 -0.0331,-10.39084 -6.04704,-24.11428 -14.55138,-33.20545 -3.63751,-3.88851 -4.492,-4.01501 -5.14275,-0.7613 -0.18549,0.92745 -0.68139,1.68627 -1.10201,1.68627 -0.42062,0 -2.07925,-1.62013 -3.68583,-3.60029 -3.60329,-4.44112 -7.7246,-8.29252 -8.87369,-8.29252 -0.62107,0 -0.86214,0.60316 -0.86214,2.15706 0,1.18638 -0.3839,2.65174 -0.85311,3.25636 -0.82148,1.05856 -0.94221,1.00041 -3.25637,-1.5682 -3.01996,-3.35204 -7.20883,-6.66414 -8.43734,-6.67134 -0.75094,-0.005 -0.887,0.41655 -0.68467,2.11822 0.13888,1.16804 0.006,2.49149 -0.2965,2.941 -0.68154,1.01459 -1.95064,0.4269 -5.95296,-2.75669 -3.25918,-2.59246 -8.61919,-5.34003 -9.43448,-4.83616 -0.35042,0.21658 -0.12648,1.07078 0.58074,2.21507 1.25881,2.03681 1.46514,3.45009 0.58325,3.99513 -0.31233,0.19303 -2.54708,-0.63966 -4.9661,-1.85041 -4.49788,-2.25126 -11.75942,-4.54839 -12.38874,-3.91907 -0.19272,0.19272 0.44806,1.25979 1.42395,2.37126 1.82672,2.08053 2.34908,4.24675 1.02404,4.24675 -0.41266,0 -2.64256,-0.64836 -4.95533,-1.4408 -3.81933,-1.30862 -11.2841,-2.52576 -11.2841,-1.83988 0,0.15459 0.76454,1.08108 1.69897,2.05888 1.70013,1.77901 2.13956,3.14795 1.19742,3.73023 -0.27586,0.17049 -2.50576,-0.21823 -4.95534,-0.86382 -5.20859,-1.37273 -13.91153,-1.75224 -15.01247,-0.65465 -0.56738,0.56565 -0.33744,1.09011 1.1514,2.6262 1.38598,1.42997 1.67373,2.03473 1.12848,2.37172 -0.40253,0.24877 -4.24171,0.48422 -8.53151,0.52321 -4.2898,0.039 -7.9605,0.23178 -8.1572,0.4284 -0.1966,0.19663 0.1747,1.10493 0.8252,2.01844 1.6699,2.34509 5.1705,9.78508 5.1705,10.98902 0,0.86189 -0.5306,1.00704 -3.6811,1.00704 -2.6936,0 -3.6812,0.20296 -3.6812,0.75655 0,1.28826 3.8364,5.75984 7.3805,8.60242 4.8046,3.85365 4.3345,5.21221 -1.5491,4.4771 -2.2384,-0.27967 -2.9997,-0.19301 -2.9997,0.34142 0,0.39392 2.6919,3.44799 5.9821,6.78684 6.45804,6.55356 6.51332,6.78556 1.6169,6.78556 -1.3761,0 -2.5021,0.23123 -2.5021,0.51384 0,0.81747 5.5955,5.64548 9.76908,8.42918 2.10248,1.4023 3.82269,2.73738 3.82269,2.96682 0,0.56064 -2.1304,1.09839 -4.38902,1.10789 -1.21073,0.005 -1.84055,0.28353 -1.84055,0.81372 0,1.0101 6.25042,5.1847 12.03439,8.03765 2.41396,1.19069 4.38901,2.37016 4.38901,2.62105 0,0.6183 -2.58704,1.56076 -4.2843,1.56076 -2.24218,0 -1.59743,1.47154 1.22632,2.79886 2.18426,1.02672 7.27137,2.76243 13.11024,4.47318 1.90021,0.55675 1.69948,1.38355 -0.61754,2.5437 -1.13988,0.57073 -2.0725,1.2626 -2.0725,1.53746 0,1.30969 5.35105,2.65128 13.19888,3.30916 7.40719,0.62095 7.84346,1.13683 3.56274,4.21284 -0.5946,0.42726 -0.89691,1.06666 -0.67448,1.42656 0.57311,0.9273 9.14853,0.82584 15.36074,-0.18175 z m 143.21682,0.49024 c 1.36244,-0.52282 1.08949,-1.12907 -1.08633,-2.41283 -3.56601,-2.10401 -2.27319,-3.42995 3.39795,-3.48501 5.36056,-0.0521 14.44126,-2.11829 14.44126,-3.286 0,-0.27194 -1.01938,-0.89486 -2.26529,-1.38427 -3.31662,-1.3028 -2.8766,-2.28041 1.55739,-3.46015 5.26288,-1.40028 12.35556,-4.18841 13.17908,-5.18069 0.75395,-0.90846 0.77568,-0.89584 -3.0272,-1.75915 -1.19112,-0.2704 -2.17415,-0.7355 -2.1845,-1.03355 -0.0104,-0.29806 2.02852,-1.604 4.53084,-2.9021 5.18547,-2.69001 11.51557,-6.97323 11.8586,-8.02405 0.15894,-0.48688 -0.47645,-0.7079 -2.03509,-0.7079 -2.52096,0 -4.05778,-0.44162 -4.05778,-1.16604 0,-0.26319 1.21052,-1.29597 2.69004,-2.29508 4.68054,-3.16072 10.33542,-7.96408 10.33542,-8.77911 0,-0.56348 -0.79023,-0.78523 -2.7982,-0.78523 -1.539,0 -2.95135,-0.24781 -3.13854,-0.55069 -0.18719,-0.30288 2.21881,-3.09022 5.34666,-6.19411 3.12785,-3.10388 5.687,-6.01774 5.687,-6.47525 0,-0.65424 -0.77503,-0.81294 -3.63039,-0.74336 -1.99672,0.0487 -3.81899,-0.0985 -4.04951,-0.32713 -0.23051,-0.22857 2.04028,-2.78859 5.04621,-5.68893 3.66222,-3.53359 5.46531,-5.68526 5.46531,-6.52188 0,-1.15911 -0.26366,-1.24854 -3.68111,-1.24854 -2.1483,0 -3.6811,-0.24292 -3.6811,-0.58339 0,-1.13629 2.97826,-7.66288 4.59229,-10.06358 2.57274,-3.82667 2.32445,-4.283 -2.0741,-3.81195 -4.8569,0.52013 -13.27835,-0.1669 -13.27835,-1.08326 0,-0.37608 0.63711,-1.28232 1.41581,-2.01387 0.77869,-0.73155 1.41581,-1.65231 1.41581,-2.04615 0,-1.80793 -10.73845,-1.37543 -16.52299,0.66547 -1.26947,0.4479 -2.65835,0.81436 -3.0864,0.81436 -1.289,0 -0.88088,-2.53781 0.63752,-3.96427 0.7787,-0.73155 1.41582,-1.54051 1.41582,-1.79769 0,-0.92629 -4.50227,-0.43843 -9.42258,1.02102 -7.42196,2.20149 -7.56715,2.2197 -7.56715,0.94864 0,-0.60099 0.76454,-1.82519 1.69897,-2.72043 2.3134,-2.21637 2.25781,-3.32246 -0.14158,-2.81722 -3.55081,0.74769 -8.66445,2.63162 -11.60107,4.27398 -1.63054,0.91191 -3.22333,1.65802 -3.53952,1.65802 -0.90605,0 -0.6711,-2.77717 0.38639,-4.56737 0.52871,-0.89504 0.79988,-1.78876 0.60259,-1.98605 -0.62715,-0.62716 -6.23966,2.30234 -10.27335,5.36227 -4.99799,3.79144 -5.81896,3.51776 -5.46191,-1.82076 l 0.10675,-1.59611 -1.88729,0.9724 c -1.03802,0.53482 -3.70836,2.73574 -5.93411,4.89092 l -4.0468,3.91853 -0.90853,-1.29712 c -0.49969,-0.71341 -0.90853,-2.13236 -0.90853,-3.15324 0,-1.23984 -0.27136,-1.85612 -0.81729,-1.85612 -0.7478,0 -6.29373,5.43051 -10.35823,10.14265 -1.84839,2.14291 -2.71186,2.00671 -3.26575,-0.51514 -0.20367,-0.92729 -0.62726,-1.84479 -0.94132,-2.03889 -0.83604,-0.5167 -6.32246,5.37795 -9.32386,10.01764 -8.99235,13.90077 -11.74629,27.90804 -7.14798,36.35665 1.66563,3.06032 6.14015,7.43172 9.39361,9.17715 2.49027,1.33598 1.79572,1.67257 11.20078,-5.42803 12.06991,-9.11251 26.66752,-17.51502 43.54307,-25.0638 9.58025,-4.28544 18.27846,-7.6561 17.27034,-6.69245 -0.31148,0.29773 -3.87933,2.38773 -7.92854,4.64444 -21.89708,12.20364 -38.96668,24.12189 -50.2616,35.09339 -5.60156,5.44117 -5.75417,5.90486 -3.52177,10.7005 5.07304,10.89791 14.87356,16.8994 32.82937,20.10355 4.66683,0.83278 14.2243,1.17514 15.81076,0.56636 z"
             id="path3967"
             inkscape:connector-curvature="0" />
          <path
             style="fill:#0a0201"
             d="m -892.02122,-31.84217 c -13.37858,-2.54996 -24.40189,-8.188448 -34.78606,-17.79329 -3.39645,-3.141548 -5.65228,-4.724617 -8.10442,-5.687436 -10.19941,-4.004733 -21.76387,-10.410058 -31.71416,-17.565848 -2.49182,-1.792003 -6.69678,-4.297755 -9.34435,-5.568332 -19.13357,-9.182279 -33.03189,-27.781684 -36.80079,-49.248774 -0.3393,-1.93215 -1.1396,-4.69477 -1.7785,-6.13915 -1.865,-4.21608 -4.4434,-11.9605 -6.1771,-18.553 -1.4118,-5.36871 -1.9873,-6.61792 -4.6961,-10.19384 -8.0725,-10.65637 -12.8407,-24.47551 -12.8376,-37.2053 0,-8.97173 2.6408,-20.09474 6.6497,-28.03305 3.5516,-7.03257 9.7502,-14.67435 15.8885,-19.58754 6.06,-4.8506 7.1961,-7.1929 7.6674,-15.80772 0.196,-3.582 0.8375,-8.81263 1.4256,-11.62364 1.193,-5.70193 4.6187,-14.49675 7.51601,-19.29601 5.04621,-8.35871 13.29042,-16.70996 21.02372,-21.29669 5.82382,-3.45418 6.30804,-3.87392 5.42963,-4.70664 -0.4191,-0.39731 -2.17967,-1.12484 -3.91237,-1.61673 -4.27734,-1.21428 -6.71866,-2.99179 -8.2229,-5.98702 -1.05789,-2.10649 -1.89124,-2.82773 -5.13854,-4.44737 -5.80334,-2.89448 -7.92467,-5.21627 -8.90361,-9.74497 -0.19309,-0.89328 -1.59614,-2.35415 -3.80174,-3.95829 -4.6813,-3.40479 -6.173,-5.47779 -6.6916,-9.29941 -0.3609,-2.65951 -0.8172,-3.54316 -3.078,-5.96007 -3.1827,-3.40254 -3.7707,-4.79246 -3.7707,-8.91223 0,-2.59521 -0.2805,-3.49495 -1.6214,-5.20163 -3.0098,-3.83071 -3.64,-5.62757 -3.3297,-9.49302 0.2484,-3.09523 0.08,-3.9415 -1.3468,-6.77026 -2.0661,-4.09602 -2.1027,-6.86647 -0.1385,-10.47539 1.446,-2.65669 1.4635,-2.80215 0.5664,-4.69282 -1.3631,-2.87242 -1.2051,-7.14862 0.3483,-9.43111 2.2688,-3.3335 3.987,-4.19969 8.8068,-4.43962 4.2022,-0.20918 4.4321,-0.29448 6.3424,-2.3529 2.3716,-2.55556 4.7214,-3.31898 11.60963,-3.7719 3.67835,-0.24186 5.41216,-0.61048 6.22957,-1.32444 2.16594,-1.89182 3.98755,-2.46784 7.92854,-2.50713 3.22496,-0.0322 4.3156,-0.2901 5.84814,-1.38316 2.91435,-2.07861 5.35345,-2.3911 10.63835,-1.36296 4.57997,0.89101 4.70164,0.88503 7.63003,-0.37473 3.49339,-1.50281 5.61357,-1.33004 10.88003,0.88658 3.00402,1.26437 3.73228,1.37416 5.5342,0.83429 3.29964,-0.98859 5.10751,-0.74734 9.32175,1.24396 3.45445,1.63227 4.23408,1.80252 6.23308,1.3611 3.53055,-0.77962 6.34627,0.2852 10.92899,4.13302 3.48883,2.92934 4.36745,3.40041 6.34235,3.40041 3.32914,0 6.03011,1.62895 10.48288,6.32221 6.28657,6.62612 11.76841,15.81674 14.80747,24.82562 0.57791,1.71313 1.25896,3.44571 1.51343,3.85019 0.73614,1.17004 1.82514,-0.12544 2.89706,-3.44637 2.73401,-8.47025 8.70737,-18.61882 14.95995,-25.41652 3.91896,-4.26063 7.21342,-6.13513 10.78258,-6.13513 2.16115,0 2.80742,-0.3443 5.73643,-3.05604 4.29978,-3.98085 7.55275,-5.27205 11.18043,-4.43787 2.4625,0.56626 2.86983,0.49227 5.49141,-0.99753 3.67432,-2.08804 6.48138,-2.58326 9.63612,-1.69999 2.33285,0.65316 2.78485,0.58733 6.34347,-0.9238 4.55938,-1.93609 8.58899,-2.11632 11.31494,-0.50606 1.73824,1.02681 1.99039,1.03102 6.79354,0.11359 5.55819,-1.06165 7.90959,-0.74178 10.70369,1.45605 1.2959,1.01936 2.3818,1.27002 5.72815,1.32225 3.53605,0.0552 4.52035,0.30764 6.85284,1.7576 2.33136,1.44926 3.46966,1.74149 7.90196,2.02864 5.87651,0.38072 9.16199,1.5881 11.70976,4.30321 1.52517,1.62534 1.96222,1.77259 5.26106,1.77259 8.20913,0 12.73703,6.10565 9.88613,13.33096 l -1.12608,2.85395 1.35763,2.24297 c 1.90709,3.15069 1.86705,7.56757 -0.0998,11.00869 -1.26189,2.20776 -1.40182,2.94777 -1.08066,5.71491 0.43299,3.7306 -0.32248,5.95292 -3.38884,9.9688 -1.81986,2.3834 -1.99594,2.91286 -1.67671,5.04165 0.45041,3.00357 -0.99013,6.37926 -4.13271,9.68435 -1.83786,1.9329 -2.3116,2.90036 -2.59597,5.30141 -0.42419,3.58165 -2.01901,5.81419 -6.8852,9.63838 -2.98375,2.34484 -3.66367,3.21016 -4.2019,5.34766 -0.87498,3.47488 -2.96521,5.60449 -7.98791,8.13842 -3.02553,1.52637 -4.47138,2.61917 -5.02592,3.79866 -1.94972,4.14712 -4.94145,5.95249 -13.5212,8.15945 -3.81496,0.98131 -3.26962,2.23143 2.73463,6.26868 9.78287,6.57798 17.89789,16.27354 22.66781,27.08273 3.01957,6.84268 4.43262,12.64608 5.11928,21.02485 0.75413,9.202 1.93876,11.98011 6.54913,15.35853 10.83478,7.93958 19.63172,20.95149 22.84151,33.78579 2.53222,10.12509 2.40352,22.10198 -0.34033,31.66978 -1.87124,6.525 -6.17979,15.28384 -10.05078,20.43222 -2.67152,3.5531 -3.27328,4.8422 -4.36192,9.34435 -0.69458,2.87245 -1.99698,7.6113 -2.89422,10.53078 -1.11179,3.6176 -1.63134,6.5249 -1.63134,9.12859 0,11.23145 -4.87244,25.4406 -12.33309,35.966118 -7.47525,10.546106 -20.75761,20.402985 -32.73788,24.294884 -1.58389,0.51454 -4.40464,2.04507 -6.26833,3.401179 -7.57867,5.514594 -19.06774,11.94879 -27.94609,15.65058 -2.19313,0.914415 -4.62294,2.748988 -8.2117,6.200055 -6.49481,6.24561 -11.116,9.493185 -18.58645,13.061742 -8.78522,4.196604 -15.10837,5.647962 -25.87001,5.937966 -6.03495,0.162625 -10.06375,-0.0085 -12.89245,-0.547664 z m 22.82216,-11.954453 c 12.06728,-2.789034 24.07141,-10.587137 31.22847,-20.286584 2.07846,-2.816783 2.44879,-3.725694 2.44879,-6.01011 0,-2.839799 -1.589,-5.508698 -4.76902,-8.010107 -2.57898,-2.028618 -13.01097,-5.551767 -20.26059,-6.84251 -9.82807,-1.749817 -26.58943,-1.714683 -36.41657,0.07633 -9.10695,1.659761 -16.86112,4.395984 -21.8425,7.707599 -6.06547,4.032319 -7.86585,7.793777 -5.71237,11.934621 2.72525,5.240277 11.62379,13.034558 19.28726,16.893825 4.41016,2.22092 11.96452,4.650383 16.76247,5.390772 4.56582,0.704564 14.42014,0.268019 19.27406,-0.853835 z m -73.44342,-40.785442 c 3.23725,-1.295285 7.66318,-6.265166 8.90261,-9.996727 3.28319,-9.884778 -0.80361,-25.802368 -10.32207,-40.203158 -3.102,-4.69311 -11.80111,-14.20068 -16.29073,-17.80472 -4.54002,-3.6445 -11.16631,-7.35868 -15.56495,-8.7245 -4.83949,-1.50271 -12.51446,-1.66393 -15.6265,-0.32824 -3.07558,1.32003 -6.77365,5.06354 -8.14024,8.24025 -2.75814,6.41143 -3.05044,19.61679 -0.63404,28.63998 3.37888,12.61729 11.9336,24.786529 22.36606,31.816193 11.76634,7.928471 27.23593,11.591473 35.30986,8.360922 z m 140.50649,-0.322482 c 25.76549,-5.891494 43.66467,-28.256483 43.62684,-54.511663 -0.008,-5.609 -1.43062,-13.48954 -3.34964,-18.55624 -3.35065,-8.84657 -10.94254,-12.29518 -21.55884,-9.79309 -4.14167,0.97612 -10.90457,4.4207 -14.72677,7.50087 -9.55978,7.70384 -13.7354,12.36189 -20.89476,23.30881 -12.08986,18.48583 -14.8284,38.866611 -6.53961,48.669208 4.09564,4.843658 12.03908,5.98966 23.44278,3.382105 z m -68.56995,-14.956385 c 15.37939,-2.917428 28.64425,-13.260918 34.30284,-26.748228 3.08799,-7.36023 3.92219,-12.77647 3.06434,-19.89595 -1.39149,-11.54838 -7.03966,-21.34243 -16.46116,-28.54406 -5.38642,-4.11728 -9.6927,-6.20025 -16.60783,-8.03328 -10.27557,-2.72382 -18.52257,-2.4685 -28.46188,0.88116 -14.48295,4.8809 -24.73377,14.8607 -29.62602,28.84274 -1.10949,3.17091 -1.28899,4.81924 -1.29514,11.89281 -0.007,7.75648 0.088,8.46805 1.70899,12.83601 2.52118,6.79365 5.01944,10.64393 10.40726,16.03955 6.87894,6.88891 15.57098,11.39421 25.01109,12.963865 4.86563,0.809039 13.01724,0.702531 17.95751,-0.234617 z M -1005.4767,-165.5729 c 3.6395,-3.06248 6.05805,-7.45972 9.05817,-16.46911 4.73909,-14.23153 6.84685,-33.16402 5.1728,-46.46376 -1.19881,-9.52415 -4.11495,-14.89833 -8.08413,-14.89833 -3.52234,0 -10.88694,5.56588 -16.35824,12.36284 -12.1681,15.11624 -14.3178,35.93754 -5.5223,53.48603 2.0649,4.11981 6.7833,10.68534 8.8441,12.30642 2.0092,1.58037 4.7812,1.44996 6.8896,-0.32409 z m 252.9605,-0.68212 c 0.64446,-0.53816 2.31698,-2.38013 3.71671,-4.09326 6.97927,-8.54191 10.43494,-17.41572 11.06914,-28.42442 0.71689,-12.44392 -2.53276,-22.96128 -10.21297,-33.05397 -3.50186,-4.60185 -10.03299,-10.27006 -14.70171,-12.75926 -3.00104,-1.60005 -3.44843,-1.69213 -5.03282,-1.03585 -3.85617,1.59727 -6.56091,13.2665 -5.89588,25.43697 0.84408,15.44721 4.7703,34.71058 8.94558,43.89013 4.15368,9.13202 8.69299,12.89468 12.11195,10.03966 z m -179.84704,-9.41788 c 11.53964,-1.89313 22.19749,-8.18226 30.27239,-17.86355 8.2023,-9.83405 11.61764,-17.66024 13.35928,-30.61263 1.1595,-8.62306 -0.1684,-16.17025 -4.38427,-24.91827 -5.83965,-12.11737 -17.77475,-19.97448 -31.59403,-20.79895 -8.61128,-0.51375 -17.97979,2.04626 -26.7263,7.30315 -4.90865,2.95024 -12.79827,10.72672 -16.50496,16.26828 -18.03641,26.96473 -9.68618,60.65661 17.19259,69.36934 6.08527,1.97254 11.67545,2.35341 18.3853,1.25263 z m 120.34389,-2.40226 c 12.03853,-3.01303 21.08103,-11.60336 25.24987,-23.98727 1.52342,-4.52546 1.85542,-6.48023 2.08999,-12.30575 0.3901,-9.68791 -1.31793,-17.81576 -5.52267,-26.28025 -8.73901,-17.5923 -24.94864,-29.37357 -42.48802,-30.88061 -8.5442,-0.73414 -20.1968,3.17188 -26.21138,8.78621 -17.9736,16.77751 -16.59587,48.38862 3.0227,69.3541 12.33666,13.18361 29.05173,19.0197 43.85951,15.31357 z m 42.96531,-77.8047 c 0.76816,-0.71289 0.50241,-10.57127 -0.41175,-15.27413 -2.65592,-13.6632 -10.59313,-25.65879 -22.08094,-33.37111 -12.01323,-8.06509 -28.01896,-10.93829 -41.18472,-7.39312 -1.96283,0.52853 -2.22403,0.79914 -2.22403,2.30413 0,2.41367 1.29306,4.66659 5.68498,9.90513 5.40024,6.44121 21.1814,21.43773 28.57764,27.15674 10.72106,8.28989 22.74318,15.85522 27.46672,17.28439 1.47208,0.44539 3.32567,0.17348 4.1721,-0.61203 z m -219.59477,-1.60301 c 3.82686,-1.58903 12.73031,-6.75378 16.64206,-9.65379 25.36971,-18.80806 44.47988,-38.85589 41.53329,-43.57116 -1.48898,-2.38274 -13.86494,-3.58217 -22.10471,-2.14231 -25.53632,4.46234 -43.64048,25.51697 -43.90511,51.06038 -0.0379,3.65477 0.13127,4.53019 0.99763,5.16369 1.48731,1.08755 2.44253,0.96784 6.83684,-0.85681 z m 124.85249,-16.46053 c 12.12611,-2.4885 20.65797,-7.63638 24.57062,-14.82519 1.39634,-2.56554 1.54887,-3.33127 1.29457,-6.49919 -0.35603,-4.43545 -1.97176,-7.36025 -6.6508,-12.0393 -19.61202,-19.61201 -52.23793,-19.79119 -72.06725,-0.39579 -4.36962,4.27399 -5.70739,6.97475 -5.761,11.63061 -0.0378,3.2834 0.18229,4.04838 2.03715,7.08042 2.41485,3.94741 3.56809,5.0933 7.86035,7.81025 12.38694,7.84077 31.75652,10.71867 48.71636,7.23819 z m -80.15968,-49.01376 c 7.08953,-1.14988 14.49669,-3.34527 19.5213,-5.78586 5.19223,-2.52201 10.83937,-7.96895 13.39315,-12.91834 3.26263,-6.32319 3.37963,-5.90798 -3.58601,-12.72717 -10.41581,-10.19683 -26.41837,-21.47954 -46.84082,-33.02543 -5.57331,-3.15089 -9.86004,-5.81997 -9.52607,-5.93129 0.96672,-0.32224 14.17465,5.30304 25.00461,10.64951 15.85548,7.82745 25.59578,13.76798 37.24897,22.71786 3.18073,2.44287 6.14614,4.44158 6.58977,4.44158 1.37458,0 7.59608,-4.47968 9.42025,-6.78288 3.28434,-4.14683 4.23192,-7.07943 4.21292,-13.03847 -0.0245,-7.67511 -2.96173,-16.42527 -8.49233,-25.29877 -2.57635,-4.13358 -8.92846,-11.5123 -9.91059,-11.5123 -0.26327,0 -0.78408,1.01938 -1.15736,2.26529 -0.37328,1.24592 -0.97613,2.2653 -1.33966,2.2653 -0.36353,0 -2.00224,-1.65316 -3.64159,-3.6737 -3.54854,-4.37364 -8.45672,-8.90598 -9.16828,-8.46622 -0.27939,0.17268 -0.50799,1.26959 -0.50799,2.43759 0,1.168 -0.3817,2.61832 -0.84822,3.22294 -0.81509,1.05636 -0.95338,0.98498 -3.53953,-1.8272 -2.59425,-2.82096 -7.70922,-6.98416 -8.58087,-6.98416 -0.2325,0 -0.40412,1.25266 -0.38136,2.78368 0.0228,1.53102 -0.1487,2.97407 -0.38099,3.20678 -0.55721,0.55819 -2.35685,-0.4171 -5.74998,-3.11611 -2.69869,-2.14663 -8.15285,-5.13965 -9.36594,-5.13965 -0.93175,0 -0.715,1.09347 0.53068,2.67709 1.23788,1.5737 1.47359,3.27492 0.53421,3.85549 -0.32915,0.20342 -2.3042,-0.52267 -4.38902,-1.61353 -4.12401,-2.15785 -11.38827,-4.55922 -12.88054,-4.25796 -0.73392,0.14816 -0.49789,0.63596 1.10517,2.28404 2.03272,2.08981 2.71139,4.41709 1.2881,4.41709 -0.41266,0 -2.64256,-0.64836 -4.95533,-1.4408 -4.1834,-1.43337 -11.2841,-2.50308 -11.2841,-1.69993 0,0.23155 0.76454,1.13518 1.69897,2.00808 1.79367,1.67554 1.95846,2.11241 1.22974,3.26024 -0.35495,0.55908 -1.41618,0.45772 -4.94666,-0.4725 -5.24812,-1.38278 -13.94806,-1.76718 -15.05347,-0.66513 -0.56738,0.56565 -0.33744,1.09011 1.1514,2.6262 1.42506,1.47029 1.68325,2.02885 1.10346,2.38718 -0.41629,0.25728 -4.38859,0.47715 -8.82719,0.48859 -8.6208,0.0222 -8.9589,0.15433 -6.9452,2.71427 1.5117,1.92186 5.1044,9.48159 5.1044,10.74075 0,0.86189 -0.5306,1.00704 -3.6811,1.00704 -2.6936,0 -3.6812,0.20296 -3.6812,0.75655 0,1.28826 3.8364,5.75984 7.3805,8.60242 4.8046,3.85365 4.3345,5.21221 -1.5491,4.4771 -2.2335,-0.27905 -2.9997,-0.19249 -2.9997,0.33889 0,0.39251 2.5763,3.33179 5.7252,6.53171 3.1753,3.2267 5.5567,6.09089 5.3467,6.43063 -0.2082,0.33692 -1.6378,0.61259 -3.1768,0.61259 -1.539,0 -2.7982,0.23123 -2.7982,0.51384 0,0.82127 5.6034,5.65077 9.81642,8.46066 3.49937,2.33391 3.77376,2.6515 2.86496,3.31604 -0.55279,0.4042 -2.09517,0.73492 -3.42751,0.73492 -1.91513,0 -2.35453,0.17699 -2.09812,0.84517 0.43992,1.14642 6.87808,5.35328 12.24084,7.99847 2.41396,1.19069 4.38901,2.37016 4.38901,2.62105 0,0.66082 -2.63359,1.56076 -4.56746,1.56076 -4.85838,0 1.43311,3.47295 11.54735,6.37423 2.43728,0.69913 4.47605,1.526 4.53059,1.83747 0.0545,0.31148 -0.98584,1.07028 -2.31196,1.68621 -1.32612,0.61594 -2.32476,1.38048 -2.2192,1.69897 0.32064,0.96743 7.1183,2.52109 13.29737,3.03922 7.70544,0.64613 8.15616,1.14276 3.84715,4.2391 -0.5946,0.42726 -0.89691,1.06666 -0.67448,1.42656 0.57311,0.9273 9.14853,0.82584 15.36074,-0.18175 z m 143.21682,0.49024 c 1.36244,-0.52282 1.08949,-1.12907 -1.08633,-2.41283 -3.56601,-2.10401 -2.27319,-3.42995 3.39795,-3.48501 5.36056,-0.0521 14.44126,-2.11829 14.44126,-3.286 0,-0.27194 -1.01938,-0.89486 -2.26529,-1.38427 -1.24592,-0.48941 -2.26434,-1.22889 -2.26317,-1.64329 10e-4,-0.46621 2.10649,-1.35957 5.52167,-2.34323 8.91664,-2.5682 14.91596,-6.05562 10.41734,-6.05562 -2.07716,0 -4.78539,-0.96455 -4.41065,-1.57088 0.14969,-0.2422 2.39492,-1.52678 4.98941,-2.85461 5.19925,-2.66093 11.29521,-6.78765 11.65809,-7.89206 0.16007,-0.48713 -0.47412,-0.7079 -2.03357,-0.7079 -2.52096,0 -4.05778,-0.44162 -4.05778,-1.16604 0,-0.26319 1.21052,-1.29597 2.69004,-2.29508 4.68054,-3.16072 10.33542,-7.96408 10.33542,-8.77911 0,-0.56348 -0.79023,-0.78523 -2.7982,-0.78523 -1.539,0 -2.95343,-0.25117 -3.14315,-0.55815 -0.18973,-0.30699 2.21627,-3.07676 5.34665,-6.15505 3.1304,-3.0783 5.69162,-5.9888 5.69162,-6.46779 0,-0.70226 -0.70292,-0.85376 -3.63039,-0.78242 -1.99672,0.0487 -3.84174,-0.1213 -4.10006,-0.37767 -0.25831,-0.25638 1.51984,-2.27005 3.95145,-4.47483 4.51002,-4.0893 7.35848,-7.61576 6.83531,-8.46226 -0.16034,-0.25944 -1.933,-0.47172 -3.93922,-0.47172 -2.00623,0 -3.64768,-0.21091 -3.64768,-0.46868 0,-1.10912 3.08827,-7.94852 4.60842,-10.206 0.9122,-1.35463 1.71384,-2.73977 1.78142,-3.07807 0.0834,-0.41769 -2.46192,-0.63084 -7.93126,-0.66414 -9.28842,-0.0566 -10.36276,-0.46728 -7.91247,-3.02484 0.83894,-0.87566 1.52535,-1.8811 1.52535,-2.23433 0,-1.73834 -10.88036,-1.2515 -16.52299,0.73933 -1.26947,0.4479 -2.65835,0.81436 -3.0864,0.81436 -1.289,0 -0.88088,-2.53781 0.63752,-3.96427 0.7787,-0.73155 1.41582,-1.54051 1.41582,-1.79769 0,-0.92629 -4.50227,-0.43843 -9.42258,1.02102 -7.36124,2.18348 -7.56715,2.21091 -7.56715,1.00815 0,-0.56827 0.93911,-1.99495 2.08691,-3.17041 1.14781,-1.17546 1.92441,-2.29971 1.72579,-2.49833 -0.68681,-0.68681 -8.32308,1.59435 -12.70315,3.79476 -2.41824,1.21485 -4.59273,2.20882 -4.83222,2.20882 -0.89146,0 -0.39526,-3.29628 0.70718,-4.6978 2.87041,-3.64913 -3.32685,-1.44335 -9.85208,3.50665 -2.14265,1.6254 -4.21141,2.83412 -4.59726,2.68605 -0.88292,-0.3388 -1.34765,-2.64096 -0.82409,-4.08228 1.15569,-3.1815 -2.24294,-1.49485 -7.76792,3.85501 l -4.05952,3.93086 -0.96163,-1.46765 c -0.55927,-0.85353 -0.84491,-2.07829 -0.68266,-2.92704 0.17497,-0.91529 -0.006,-1.56862 -0.48448,-1.75236 -1.02492,-0.3933 -3.81365,2.01863 -8.47612,7.33089 -2.12408,2.4201 -4.11435,4.31606 -4.42281,4.21324 -0.30847,-0.10282 -0.85081,-1.04814 -1.2052,-2.10071 -0.3544,-1.05256 -0.91088,-2.0026 -1.23663,-2.11118 -1.67398,-0.55799 -10.08917,10.76771 -13.49376,18.16076 -5.56131,12.07634 -6.44337,21.37636 -2.68277,28.28582 1.66563,3.06032 6.14015,7.43172 9.39361,9.17715 2.49052,1.33612 1.79753,1.67207 11.20078,-5.4299 7.76573,-5.86521 15.18601,-10.57746 25.41814,-16.14179 11.44767,-6.22535 33.13392,-15.89593 34.56716,-15.41459 0.29527,0.0992 -2.81211,2.04639 -6.90529,4.32716 -21.99275,12.25462 -39.1449,24.22474 -50.45674,35.21267 -5.61174,5.45106 -5.75699,5.8983 -3.49443,10.76016 5.06028,10.87373 14.76248,16.8009 32.80203,20.03909 4.65976,0.83646 14.21947,1.18179 15.81076,0.57116 z"
             id="path3965"
             inkscape:connector-curvature="0" />
        </g>
        <g
           id="g3959"
           transform="matrix(1.2597382,0,0,1.2597382,1220.3319,597.30377)">
          <path
             sodipodi:nodetypes="sssssssssscsssssscccccccssssssssssssssccccsscsssscssscccsscccsscsssscsssssssssss"
             style="fill:#d4ac42"
             d="m -936.535,-56.968709 c -2.88713,-0.77744 -7.11204,-2.36381 -9.3887,-3.52528 -5.29807,-2.70287 -13.08083,-10.4781 -15.77565,-15.76038 -4.74406,-9.29913 -5.08632,-13.04511 -5.08632,-55.669201 0,-42.62409 0.34226,-46.37007 5.08632,-55.6692 2.84097,-5.56876 10.5979,-13.13349 16.53299,-16.12335 8.6965,-4.38095 12.87528,-4.70745 60.24841,-4.70745 48.51122,0 49.44167,-0.0881 60.60269,-5.74006 6.02622,-3.05167 16.80781,-13.18655 20.2284,-19.01504 6.24049,-10.63343 6.70607,-13.01735 7.27387,-37.2449 l 0.52732,-22.5 14.5,-0.29383 c 7.975,-0.1616 17.42274,0.20827 20.99498,0.82194 16.50448,2.83526 28.12131,14.491 31.01733,31.1212 1.52926,8.78166 0.82902,94.91071 -0.81191,99.86441 -2.03065,6.13021 -7.55542,14.29419 -11.91809,17.61141 -2.31973,1.76385 -6.81973,4.25613 -10,5.53841 l -5.78231,2.33141 -65,0.50253 -65,0.50252 0,5.5 0,5.5 39.5,0.5 39.5,0.5 0.30446,14.5 c 0.34004,16.194631 -0.77763,24.040131 -4.45997,31.306891 -5.21419,10.2897 -15.6063,18.17055 -27.14371,20.58441 -8.3521,1.74742 -89.20575,1.37965 -95.95011,-0.43644 z m 100.78744,-18.70486 c 4.80304,-2.42203 8.96189,-8.80285 8.96189,-13.75 0,-1.41692 -1.0125,-4.58407 -2.25,-7.03811 -2.42203,-4.803041 -8.80285,-8.961891 -13.75,-8.961891 -1.41692,0 -4.58407,1.0125 -7.03811,2.25 -4.80304,2.42203 -8.96189,8.802851 -8.96189,13.750001 0,1.41692 1.0125,4.58407 2.25,7.03811 2.42203,4.80304 8.80285,8.96189 13.75,8.96189 1.41692,0 4.58407,-1.0125 7.03811,-2.25 z m -182.29224,-60.835671 c -10.8424,-2.55538 -20.0953,-10.21107 -25.0946,-20.76308 l -3.1513,-6.65125 0,-51 0,-51 2.9052,-6.29148 c 3.6082,-7.8139 11.3255,-15.14825 19.3482,-18.38792 l 5.7466,-2.3206 64.43187,-0.27847 c 44.79075,-0.19358 64.83366,-0.61195 65.75,-1.37244 1.64766,-1.36744 1.72935,-8.0379 0.11816,-9.64909 -0.89218,-0.89218 -11.17255,-1.2 -40.07646,-1.2 l -38.87646,0 0.32646,-19.25 c 0.31806,-18.75458 0.40031,-19.40986 3.19579,-25.4616 3.55581,-7.69771 12.26476,-16.2911 20.34945,-20.07943 l 5.78122,-2.70897 49.5,0 49.5,0 6.57366,3.21692 c 8.02307,3.92622 15.958,11.98178 19.72998,20.02993 l 2.69636,5.75315 0,47 0,47 -3.1744,6.70071 c -4.03863,8.52501 -10.59988,15.08626 -19.12489,19.12489 l -6.70071,3.1744 -49.5,0.51619 c -48.53352,0.50611 -49.62586,0.5613 -55.94604,2.82667 -17.40932,6.24009 -30.85019,21.50919 -33.97017,38.5908 -0.59608,3.26351 -1.08379,14.40101 -1.08379,24.75 l 0,18.81634 -17.75,-0.10045 c -9.76253,-0.0553 -19.43933,-0.4986 -21.50413,-0.98522 z m 96.05495,-192.24848 c 3.5576,-3.5576 3.69918,-3.96583 3.69918,-10.66585 0,-6.72252 -0.132,-7.09867 -3.76667,-10.73333 -3.63466,-3.63467 -4.01081,-3.76667 -10.73333,-3.76667 -6.72252,0 -7.09867,0.132 -10.73333,3.76667 -3.62956,3.62955 -3.76667,4.01847 -3.76667,10.68433 0,6.31529 0.26124,7.19368 3,10.08724 4.05852,4.28791 6.01265,4.99546 12.80082,4.6349 5.16359,-0.27426 6.20718,-0.71447 9.5,-4.00729 z"
             id="path3941"
             inkscape:connector-curvature="0" />
          <path
             sodipodi:nodetypes="sscccsscsssscssscccsscccsscsssscsssssss"
             style="fill:#436684"
             d="m -1019.2857,-137.82239 c -10.4259,-3.29729 -18.7848,-10.47986 -23.1205,-19.86687 l -2.8795,-6.23431 0,-51.02151 0,-51.02151 3.2868,-6.67585 c 3.9282,-7.97875 10.0835,-13.7701 18.0661,-16.99778 l 5.6471,-2.28335 64.93163,-0.27827 c 45.16025,-0.19353 65.33304,-0.61143 66.25,-1.37244 1.65553,-1.37397 1.74345,-10.02424 0.1184,-11.64929 -0.89218,-0.89218 -11.17287,-1.2 -40.07791,-1.2 l -38.87792,0 0.32792,-18.75 c 0.31305,-17.9004 0.44935,-19.0091 3.00797,-24.46807 3.74237,-7.98459 10.76459,-15.13706 18.69391,-19.04065 l 6.58398,-3.24128 49.52102,0 49.52103,0 5.71967,2.68156 c 7.94817,3.72634 14.85024,10.51278 18.90075,18.58407 l 3.37958,6.73437 0,47.02103 0,47.02102 -3.25935,6.62068 c -4.13254,8.39438 -9.68053,13.94344 -18.07443,18.07792 l -6.61719,3.25935 -49.52451,0.53853 c -46.92421,0.51025 -49.85258,0.6491 -55.77266,2.64456 -17.53417,5.91016 -31.90443,22.16679 -35.15944,39.77478 -0.60083,3.2502 -1.09242,14.1518 -1.09242,24.22579 l 0,18.31634 -17.75,-0.0669 c -11.35593,-0.0428 -19.19093,-0.5226 -21.75003,-1.33192 z m 96.19214,-188.38194 c 6.56425,-4.67416 8.32345,-16.17553 3.50844,-22.93759 -4.65602,-6.53878 -16.16962,-8.28811 -22.9189,-3.4822 -9.14125,6.50915 -8.01783,22.51686 1.93653,27.59368 4.54698,2.31901 13.40425,1.72398 17.47393,-1.17389 z"
             id="path3937"
             inkscape:connector-curvature="0" />
        </g>
      </g>
    </g>
    <g
       id="g4071">
      <rect
         y="-0.57015938"
         x="-823.68268"
         height="1000"
         width="1000"
         id="rect4061"
         style="fill:url(#linearGradient4069);fill-opacity:1;stroke:none;opacity:0.14242424" />
    </g>
  </g>
</svg>
